<svg id="Laag_1" data-name="Laag 1" xmlns="http://www.w3.org/2000/svg" viewBox="0 0 595.28 185.99"><defs><style>.cls-1{fill:#009dd9;}.cls-2{fill:#fff;}</style></defs><path class="cls-1" d="M528,15.42H218.26a61.86,61.86,0,0,1,0,109.37H528a54.69,54.69,0,0,0,0-109.37ZM242.41,70.11a54.69,54.69,0,0,0-54.68-54.69H66.84a54.68,54.68,0,0,0-7.09,108.89c1.26.17,2.53.29,3.82.37,1.08.06,2.17.11,3.27.11H187.73A54.69,54.69,0,0,0,242.41,70.11Z"/><path class="cls-2" d="M68.43,124.79c-1.1,0-2.19-.05-3.27-.11C66.24,124.74,67.33,124.79,68.43,124.79Z"/><path class="cls-2" d="M73,98.24a28,28,0,0,1-11.12-2.18A26.79,26.79,0,0,1,47.22,81.22a28.67,28.67,0,0,1-2.1-11V70.1a28.27,28.27,0,0,1,7.93-19.86A26.89,26.89,0,0,1,62,44.18,29,29,0,0,1,73.49,42a36.39,36.39,0,0,1,7,.62,30,30,0,0,1,5.72,1.71,25.11,25.11,0,0,1,4.74,2.65,31.49,31.49,0,0,1,4,3.42l-7.62,8.78a29,29,0,0,0-6.49-4.51A16.5,16.5,0,0,0,73.42,53a15.19,15.19,0,0,0-6.34,1.32,15,15,0,0,0-5,3.66,17,17,0,0,0-3.27,5.4A18.28,18.28,0,0,0,57.63,70v.15a18.62,18.62,0,0,0,1.17,6.61A17.22,17.22,0,0,0,62,82.15a14.95,14.95,0,0,0,11.39,5,16.7,16.7,0,0,0,7.89-1.71,30.71,30.71,0,0,0,6.41-4.66l7.62,7.7a39,39,0,0,1-4.36,4,25.27,25.27,0,0,1-10.8,5A35.44,35.44,0,0,1,73,98.24Z"/><path class="cls-2" d="M104.9,42.89h12V86.5H144V97.31H104.9Z"/><path class="cls-2" d="M178.51,98.24a28,28,0,0,1-11.11-2.18,26.79,26.79,0,0,1-14.69-14.84,28.67,28.67,0,0,1-2.1-11V70.1a28.32,28.32,0,0,1,2.1-10.92,27.88,27.88,0,0,1,5.83-8.94,26.69,26.69,0,0,1,8.94-6.06A29,29,0,0,1,179,42a36.39,36.39,0,0,1,7,.62,29.7,29.7,0,0,1,5.71,1.71,24.8,24.8,0,0,1,4.74,2.65,30.82,30.82,0,0,1,4,3.42l-7.61,8.78a29,29,0,0,0-6.49-4.51A16.55,16.55,0,0,0,178.9,53a15.14,15.14,0,0,0-6.33,1.32,14.89,14.89,0,0,0-5,3.66,17,17,0,0,0-3.26,5.4A18.28,18.28,0,0,0,163.12,70v.15a18.62,18.62,0,0,0,1.17,6.61,17.38,17.38,0,0,0,3.22,5.44,15,15,0,0,0,11.39,5,16.67,16.67,0,0,0,7.89-1.71,30.76,30.76,0,0,0,6.42-4.66l7.61,7.7a39.84,39.84,0,0,1-4.35,4,26.1,26.1,0,0,1-4.94,3.07,25.6,25.6,0,0,1-5.87,1.94A35.3,35.3,0,0,1,178.51,98.24Z"/><path class="cls-2" d="M270.53,42.94H281L297.27,84.4l16.18-41.46H323.7L301.27,97.27H293Z"/><path class="cls-2" d="M334.59,42.94H374.5v8.55H344V65.37H371v8.55H344V88.33h30.9v8.55h-40.3Z"/><path class="cls-2" d="M411.34,97.81a27.35,27.35,0,0,1-10.94-2.16,26.79,26.79,0,0,1-14.47-14.72,28.17,28.17,0,0,1-2.1-10.86v-.16a28.29,28.29,0,0,1,2.06-10.83,27.15,27.15,0,0,1,14.58-14.87A28.2,28.2,0,0,1,411.73,42a34.17,34.17,0,0,1,6.74.61,27.09,27.09,0,0,1,5.59,1.74,26.53,26.53,0,0,1,4.7,2.65,36.58,36.58,0,0,1,4.08,3.4l-6.09,7a30.71,30.71,0,0,0-6.86-4.86,17.88,17.88,0,0,0-8.24-1.85,16.91,16.91,0,0,0-7.13,1.51,17.64,17.64,0,0,0-5.66,4.08,18.19,18.19,0,0,0-3.7,6,20.62,20.62,0,0,0-1.31,7.4v.15a21,21,0,0,0,1.31,7.44,18.55,18.55,0,0,0,3.7,6.13,17.46,17.46,0,0,0,5.66,4.12,16.91,16.91,0,0,0,7.13,1.5,17.81,17.81,0,0,0,8.48-1.89,33.55,33.55,0,0,0,7-5.12l6.09,6.16a34.25,34.25,0,0,1-4.36,4,28.65,28.65,0,0,1-4.89,3,24.36,24.36,0,0,1-5.74,1.92A33.4,33.4,0,0,1,411.34,97.81Z"/><path class="cls-2" d="M456.34,51.73h-17.1V42.94H483v8.79H465.9V96.88h-9.56Z"/><path class="cls-2" d="M509.31,42.55h8.78l23.74,54.33h-10l-5.47-13H500.83l-5.55,13h-9.71Zm13.56,32.91-9.32-21.58L504.3,75.46Z"/><path class="cls-1" d="M23.6,173.3a11.41,11.41,0,0,1-8.28-3.4,11.53,11.53,0,0,1-2.43-3.72,11.81,11.81,0,0,1-.88-4.57v-.07a11.94,11.94,0,0,1,.86-4.56A11.46,11.46,0,0,1,19,150.72a11.79,11.79,0,0,1,4.74-.93,14.61,14.61,0,0,1,2.84.26,12.2,12.2,0,0,1,2.35.73,11.53,11.53,0,0,1,2,1.12,15.71,15.71,0,0,1,1.72,1.43l-2.56,2.95a12.9,12.9,0,0,0-2.89-2,7.55,7.55,0,0,0-3.48-.78,7.14,7.14,0,0,0-3,.63,7.48,7.48,0,0,0-2.38,1.73,7.57,7.57,0,0,0-1.56,2.54,8.76,8.76,0,0,0-.55,3.12v.06a8.87,8.87,0,0,0,.55,3.14,7.85,7.85,0,0,0,1.56,2.58A7.33,7.33,0,0,0,20.72,169a7,7,0,0,0,3,.64,7.54,7.54,0,0,0,3.58-.8,14,14,0,0,0,2.95-2.16l2.56,2.6A14.25,14.25,0,0,1,31,170.94a12.39,12.39,0,0,1-2.06,1.27,10.59,10.59,0,0,1-2.42.81A14.34,14.34,0,0,1,23.6,173.3Z"/><path class="cls-1" d="M44.37,173.3a9.22,9.22,0,0,1-3.46-.65A8.32,8.32,0,0,1,36.25,168a9.41,9.41,0,0,1-.68-3.62v-.06a9.77,9.77,0,0,1,.62-3.48A8.66,8.66,0,0,1,37.93,158a8.09,8.09,0,0,1,2.64-1.91,8,8,0,0,1,3.38-.7,8.28,8.28,0,0,1,3.59.74,7.3,7.3,0,0,1,2.56,2,8.59,8.59,0,0,1,1.54,2.94,11.62,11.62,0,0,1,.52,3.52c0,.17,0,.35,0,.53s0,.38,0,.57H39.5A5,5,0,0,0,41.17,169a4.94,4.94,0,0,0,3.27,1.12,5.72,5.72,0,0,0,2.53-.52A8.1,8.1,0,0,0,49.08,168l2.3,2a9.42,9.42,0,0,1-2.94,2.34A8.83,8.83,0,0,1,44.37,173.3Zm3.9-10.17a7.19,7.19,0,0,0-.42-1.76,4.66,4.66,0,0,0-.88-1.43,4.23,4.23,0,0,0-1.32-1,4.28,4.28,0,0,0-4.74.89,5.64,5.64,0,0,0-1.44,3.26Z"/><path class="cls-1" d="M56.12,155.77h4v2.68a9.45,9.45,0,0,1,.93-1.16,5.76,5.76,0,0,1,1.16-1,5.92,5.92,0,0,1,1.46-.68,6.15,6.15,0,0,1,1.79-.24,5.71,5.71,0,0,1,4.5,1.78A7,7,0,0,1,71.51,162v10.91h-4v-9.72a4.55,4.55,0,0,0-1-3.09A3.36,3.36,0,0,0,63.91,159a3.61,3.61,0,0,0-2.76,1.12,4.37,4.37,0,0,0-1.07,3.13v9.65h-4Z"/><path class="cls-1" d="M82,173.2a7.37,7.37,0,0,1-2-.26,4.2,4.2,0,0,1-1.59-.85,3.7,3.7,0,0,1-1-1.54,6.78,6.78,0,0,1-.36-2.38v-9H74.89v-3.37h2.17v-4.71h4v4.71h4.61v3.37H81v8.41a2.12,2.12,0,0,0,.55,1.64,2.27,2.27,0,0,0,1.56.5,5.37,5.37,0,0,0,2.44-.58v3.21A6.9,6.9,0,0,1,84,173,7.67,7.67,0,0,1,82,173.2Z"/><path class="cls-1" d="M89.56,155.77h4v3.86a7.59,7.59,0,0,1,2.3-3.12,5.57,5.57,0,0,1,3.77-1.07v4.16h-.23A6.49,6.49,0,0,0,97,160a5,5,0,0,0-1.85,1.26,5.81,5.81,0,0,0-1.2,2.13,9.59,9.59,0,0,0-.42,3v6.53h-4Z"/><path class="cls-1" d="M108.86,173.26a5.68,5.68,0,0,1-4.5-1.78,7,7,0,0,1-1.59-4.81v-10.9h4v9.71a4.55,4.55,0,0,0,1,3.09,3.36,3.36,0,0,0,2.69,1.09,3.61,3.61,0,0,0,2.76-1.12,4.34,4.34,0,0,0,1.07-3.12v-9.65h4v17.14h-4v-2.69a8.57,8.57,0,0,1-2.11,2.14A5.43,5.43,0,0,1,108.86,173.26Z"/><path class="cls-1" d="M123.09,155.77h4v2.62a13.9,13.9,0,0,1,.91-1.12,6.41,6.41,0,0,1,1.11-.94,5.4,5.4,0,0,1,1.43-.68,6,6,0,0,1,1.76-.24,5.68,5.68,0,0,1,3.13.83,5.55,5.55,0,0,1,2,2.21,8.74,8.74,0,0,1,2.46-2.21,6.58,6.58,0,0,1,3.37-.83,5.8,5.8,0,0,1,4.43,1.7,6.87,6.87,0,0,1,1.59,4.86v10.94h-4v-9.72a4.71,4.71,0,0,0-.9-3.11,3.19,3.19,0,0,0-2.56-1.07,3.43,3.43,0,0,0-2.63,1.09,4.43,4.43,0,0,0-1,3.16v9.65h-4v-9.75a4.66,4.66,0,0,0-.9-3.08A3.19,3.19,0,0,0,130.7,159a3.37,3.37,0,0,0-2.65,1.14,4.6,4.6,0,0,0-1,3.14v9.62h-4Z"/><path class="cls-1" d="M162,155.77h4.23l4.61,12.59,4.64-12.59h4.12l-7,17.27h-3.54Z"/><path class="cls-1" d="M191.13,173.3a9.42,9.42,0,0,1-3.62-.7,9.25,9.25,0,0,1-2.89-1.9,8.65,8.65,0,0,1-1.9-2.83,8.83,8.83,0,0,1-.68-3.44v-.06a8.74,8.74,0,0,1,.7-3.47,8.94,8.94,0,0,1,4.81-4.78,9.8,9.8,0,0,1,7.3,0,8.83,8.83,0,0,1,2.89,1.91,9,9,0,0,1,1.9,2.82,8.9,8.9,0,0,1,.68,3.46v.07a8.53,8.53,0,0,1-.7,3.44,8.85,8.85,0,0,1-4.82,4.77A9.24,9.24,0,0,1,191.13,173.3Zm.07-3.41a5.08,5.08,0,0,0,2.14-.44,4.87,4.87,0,0,0,1.63-1.19,5,5,0,0,0,1-1.73,6.1,6.1,0,0,0,.36-2.1v-.06a5.85,5.85,0,0,0-.39-2.14,5.42,5.42,0,0,0-1.08-1.76,5.09,5.09,0,0,0-1.64-1.18,5.3,5.3,0,0,0-4.23,0,5,5,0,0,0-1.63,1.17,4.77,4.77,0,0,0-1,1.73,6.24,6.24,0,0,0-.36,2.11v.07a5.76,5.76,0,0,0,1.47,3.88,5,5,0,0,0,3.73,1.64Z"/><path class="cls-1" d="M212.46,173.3a9.42,9.42,0,0,1-3.62-.7,9.13,9.13,0,0,1-2.89-1.9,8.65,8.65,0,0,1-1.9-2.83,8.83,8.83,0,0,1-.68-3.44v-.06a8.57,8.57,0,0,1,.7-3.47,9,9,0,0,1,1.91-2.85,9.21,9.21,0,0,1,2.89-1.93,9.83,9.83,0,0,1,7.31,0,8.83,8.83,0,0,1,2.89,1.91,9,9,0,0,1,1.9,2.82,8.9,8.9,0,0,1,.68,3.46v.07a8.53,8.53,0,0,1-.7,3.44,8.94,8.94,0,0,1-4.82,4.77A9.28,9.28,0,0,1,212.46,173.3Zm.07-3.41a5.08,5.08,0,0,0,2.14-.44,5,5,0,0,0,2.66-2.92,6.1,6.1,0,0,0,.36-2.1v-.06a5.85,5.85,0,0,0-.39-2.14,5.42,5.42,0,0,0-1.08-1.76,5.14,5.14,0,0,0-1.65-1.18,5.28,5.28,0,0,0-4.22,0,5,5,0,0,0-1.63,1.17,4.77,4.77,0,0,0-1,1.73,6.24,6.24,0,0,0-.36,2.11v.07a5.76,5.76,0,0,0,1.47,3.88,4.95,4.95,0,0,0,3.73,1.64Z"/><path class="cls-1" d="M225.64,155.77h4v3.86a7.59,7.59,0,0,1,2.3-3.12,5.57,5.57,0,0,1,3.77-1.07v4.16h-.23a6.49,6.49,0,0,0-2.37.42,5,5,0,0,0-1.85,1.26,6,6,0,0,0-1.2,2.13,9.59,9.59,0,0,0-.42,3v6.53h-4Z"/><path class="cls-1" d="M252.29,149.73h4v19.12h11.94v3.6h-15.9Z"/><path class="cls-1" d="M272,149h4.25v3.73H272Zm.16,6.36h4v17.14h-4Z"/><path class="cls-1" d="M279.59,155.31h4.22l4.61,12.6,4.64-12.6h4.12l-7,17.27h-3.54Z"/><path class="cls-1" d="M308.38,172.84a9.26,9.26,0,0,1-3.46-.65,8.27,8.27,0,0,1-4.65-4.63,9.2,9.2,0,0,1-.69-3.62v-.06a9.71,9.71,0,0,1,.62-3.47,8.81,8.81,0,0,1,1.74-2.85,8.24,8.24,0,0,1,2.64-1.91,8.74,8.74,0,0,1,7,0,7.39,7.39,0,0,1,2.56,2,8.78,8.78,0,0,1,1.54,2.94,11.67,11.67,0,0,1,.52,3.52,4.87,4.87,0,0,1,0,.54c0,.18,0,.37,0,.57h-12.6a5.08,5.08,0,0,0,1.67,3.23,5,5,0,0,0,3.27,1.12,5.86,5.86,0,0,0,2.53-.52,8.39,8.39,0,0,0,2.11-1.53l2.3,2a9.47,9.47,0,0,1-2.93,2.33A8.77,8.77,0,0,1,308.38,172.84Zm3.9-10.16a6.75,6.75,0,0,0-.43-1.77,4.39,4.39,0,0,0-.87-1.43,4.23,4.23,0,0,0-1.32-1,4.14,4.14,0,0,0-1.73-.35,3.94,3.94,0,0,0-3,1.25,5.61,5.61,0,0,0-1.44,3.26Z"/><path class="cls-1" d="M340.91,172.84a11.43,11.43,0,0,1-4.61-.91,11.23,11.23,0,0,1-3.66-2.48,11.39,11.39,0,0,1-2.44-3.72,11.86,11.86,0,0,1-.88-4.58v-.06a11.91,11.91,0,0,1,.87-4.56,11.37,11.37,0,0,1,6.14-6.27,11.79,11.79,0,0,1,4.74-.92,14.57,14.57,0,0,1,2.84.25,11.35,11.35,0,0,1,2.35.74,10,10,0,0,1,2,1.12,16.73,16.73,0,0,1,1.73,1.42l-2.57,3a12.63,12.63,0,0,0-2.89-2.05A7.51,7.51,0,0,0,341,153a7.18,7.18,0,0,0-3,.63,7.41,7.41,0,0,0-2.38,1.72,7.68,7.68,0,0,0-1.56,2.55,8.66,8.66,0,0,0-.55,3.11v.07a8.81,8.81,0,0,0,.55,3.13,7.82,7.82,0,0,0,1.56,2.58,7.47,7.47,0,0,0,2.38,1.74,7.18,7.18,0,0,0,3,.63,7.52,7.52,0,0,0,3.57-.79,14.39,14.39,0,0,0,2.95-2.16l2.57,2.59a15.11,15.11,0,0,1-1.84,1.68,12,12,0,0,1-2.06,1.26,10,10,0,0,1-2.42.81A13.66,13.66,0,0,1,340.91,172.84Z"/><path class="cls-1" d="M362,172.84a9.2,9.2,0,0,1-3.62-.7,8.86,8.86,0,0,1-2.89-1.9,8.56,8.56,0,0,1-1.9-2.82,8.69,8.69,0,0,1-.68-3.44v-.07a8.77,8.77,0,0,1,.69-3.47,9.13,9.13,0,0,1,1.92-2.84,8.93,8.93,0,0,1,2.89-1.93A9.11,9.11,0,0,1,362,155a9.46,9.46,0,0,1,3.65.7,8.74,8.74,0,0,1,4.79,4.74,8.65,8.65,0,0,1,.68,3.46v.06a8.53,8.53,0,0,1-.7,3.44,8.85,8.85,0,0,1-4.82,4.77A9.19,9.19,0,0,1,362,172.84Zm.06-3.41a5.13,5.13,0,0,0,2.15-.44,5.05,5.05,0,0,0,1.63-1.18,5.25,5.25,0,0,0,1-1.74,6.32,6.32,0,0,0,.35-2.09v-.07a6.06,6.06,0,0,0-.38-2.14,5.33,5.33,0,0,0-1.09-1.75,5.12,5.12,0,0,0-1.64-1.19,5,5,0,0,0-6.89,2.91,6.19,6.19,0,0,0-.35,2.11v.06a6,6,0,0,0,.38,2.13,5.71,5.71,0,0,0,1.08,1.75A5,5,0,0,0,360,169,4.94,4.94,0,0,0,362,169.43Z"/><path class="cls-1" d="M375.16,155.31h4v2.62a12.11,12.11,0,0,1,.9-1.11,6.46,6.46,0,0,1,1.12-.95,5.31,5.31,0,0,1,1.42-.67,5.78,5.78,0,0,1,1.77-.25,5.39,5.39,0,0,1,5.08,3.05,8.29,8.29,0,0,1,2.45-2.21,6.51,6.51,0,0,1,3.37-.84,5.76,5.76,0,0,1,4.43,1.71,6.83,6.83,0,0,1,1.6,4.85v10.94h-4v-9.72a4.73,4.73,0,0,0-.9-3.11,3.15,3.15,0,0,0-2.55-1.06,3.47,3.47,0,0,0-2.64,1.08,4.49,4.49,0,0,0-1,3.16v9.65h-3.95V162.7a4.68,4.68,0,0,0-.91-3.08,3.15,3.15,0,0,0-2.55-1.06,3.38,3.38,0,0,0-2.65,1.13,4.57,4.57,0,0,0-1,3.14v9.62h-4Z"/><path class="cls-1" d="M406,155.31h4v2.62a12.11,12.11,0,0,1,.9-1.11,6.46,6.46,0,0,1,1.12-.95,5.31,5.31,0,0,1,1.42-.67,5.78,5.78,0,0,1,1.77-.25,5.39,5.39,0,0,1,5.08,3.05,8.2,8.2,0,0,1,2.46-2.21,6.45,6.45,0,0,1,3.36-.84,5.76,5.76,0,0,1,4.43,1.71,6.83,6.83,0,0,1,1.6,4.85v10.94h-4v-9.72a4.73,4.73,0,0,0-.9-3.11,3.15,3.15,0,0,0-2.55-1.06,3.47,3.47,0,0,0-2.64,1.08,4.49,4.49,0,0,0-1,3.16v9.65h-4V162.7a4.68,4.68,0,0,0-.91-3.08,3.15,3.15,0,0,0-2.55-1.06,3.38,3.38,0,0,0-2.65,1.13,4.57,4.57,0,0,0-1,3.14v9.62h-4Z"/><path class="cls-1" d="M442.73,172.81a5.69,5.69,0,0,1-4.5-1.79,7,7,0,0,1-1.59-4.8V155.31h4V165a4.57,4.57,0,0,0,.95,3.09,3.39,3.39,0,0,0,2.69,1.09,3.62,3.62,0,0,0,2.76-1.13,4.33,4.33,0,0,0,1.07-3.12v-9.65h4v17.14h-4v-2.69a8.45,8.45,0,0,1-2.11,2.15A5.43,5.43,0,0,1,442.73,172.81Z"/><path class="cls-1" d="M457,155.31h4V158a9.57,9.57,0,0,1,.92-1.16,6.16,6.16,0,0,1,1.17-1,5.89,5.89,0,0,1,1.46-.67,5.82,5.82,0,0,1,1.79-.25,5.7,5.7,0,0,1,4.5,1.79,7,7,0,0,1,1.59,4.8v10.91h-4v-9.72a4.57,4.57,0,0,0-.95-3.09,3.39,3.39,0,0,0-2.69-1.08,3.66,3.66,0,0,0-2.77,1.11,4.41,4.41,0,0,0-1.06,3.13v9.65h-4Z"/><path class="cls-1" d="M477.15,149h4.26v3.73h-4.26Zm.16,6.36h4v17.14h-4Z"/><path class="cls-1" d="M494.33,172.84a8.77,8.77,0,0,1-3.54-.7,8.7,8.7,0,0,1-4.69-4.72,9,9,0,0,1-.67-3.44v-.07a9.14,9.14,0,0,1,.67-3.45,8.85,8.85,0,0,1,8.26-5.51,8.94,8.94,0,0,1,4,.81,9.69,9.69,0,0,1,2.81,2.15l-2.44,2.63a9.25,9.25,0,0,0-1.93-1.55,4.88,4.88,0,0,0-2.51-.6,4.49,4.49,0,0,0-2,.44,4.78,4.78,0,0,0-1.56,1.17,5.19,5.19,0,0,0-1,1.74,6,6,0,0,0-.38,2.11v.06a6.06,6.06,0,0,0,.38,2.14,5.28,5.28,0,0,0,1.05,1.76,5,5,0,0,0,1.62,1.18,5.23,5.23,0,0,0,4.53-.16,9.48,9.48,0,0,0,2-1.54l2.37,2.34a11.06,11.06,0,0,1-2.89,2.32A8.55,8.55,0,0,1,494.33,172.84Z"/><path class="cls-1" d="M515.39,172.45v-2.11a7.22,7.22,0,0,1-2.24,1.75,7,7,0,0,1-3.31.72,8.17,8.17,0,0,1-2.34-.34,6,6,0,0,1-1.93-1,5,5,0,0,1-1.33-1.66,5,5,0,0,1-.5-2.29v-.06a5.49,5.49,0,0,1,.52-2.48,5,5,0,0,1,1.44-1.76,6.35,6.35,0,0,1,2.21-1,10.69,10.69,0,0,1,2.78-.35,15.1,15.1,0,0,1,2.64.2,15.34,15.34,0,0,1,2.1.52v-.33a3.42,3.42,0,0,0-1.09-2.72,4.64,4.64,0,0,0-3.13-.94,10.23,10.23,0,0,0-2.6.29,15.71,15.71,0,0,0-2.31.78l-1.07-3.15a18.59,18.59,0,0,1,2.93-1,14.35,14.35,0,0,1,3.6-.39c2.55,0,4.45.63,5.68,1.9a7.33,7.33,0,0,1,1.85,5.34v10.16Zm.1-7.17a9.72,9.72,0,0,0-1.77-.49,11.48,11.48,0,0,0-2.16-.2,5,5,0,0,0-2.89.72,2.25,2.25,0,0,0-1,1.95v.06a2.15,2.15,0,0,0,.95,1.89,4.14,4.14,0,0,0,2.36.64,5.76,5.76,0,0,0,1.8-.26,4.44,4.44,0,0,0,1.44-.73,3.35,3.35,0,0,0,1-1.13,3.19,3.19,0,0,0,.34-1.48Z"/><path class="cls-1" d="M529.74,172.74a7.09,7.09,0,0,1-2-.26,3.94,3.94,0,0,1-1.58-.84,3.7,3.7,0,0,1-1-1.54,6.87,6.87,0,0,1-.36-2.39v-9H522.6v-3.37h2.18V150.6h4v4.71h4.61v3.37h-4.61v8.41a2.11,2.11,0,0,0,.55,1.64,2.19,2.19,0,0,0,1.55.51,5.38,5.38,0,0,0,2.44-.59v3.22a7.38,7.38,0,0,1-1.59.65A7.59,7.59,0,0,1,529.74,172.74Z"/><path class="cls-1" d="M537.34,149h4.25v3.73h-4.25Zm.16,6.36h4v17.14h-4Z"/><path class="cls-1" d="M554.71,172.84a9.2,9.2,0,0,1-3.62-.7,8.86,8.86,0,0,1-2.89-1.9,8.41,8.41,0,0,1-1.9-2.82,8.69,8.69,0,0,1-.68-3.44v-.07a8.77,8.77,0,0,1,.69-3.47,9.13,9.13,0,0,1,1.92-2.84,8.93,8.93,0,0,1,2.89-1.93,9.11,9.11,0,0,1,3.65-.72,9.46,9.46,0,0,1,3.65.7,8.74,8.74,0,0,1,4.79,4.74,8.65,8.65,0,0,1,.68,3.46v.06a8.53,8.53,0,0,1-.7,3.44,8.85,8.85,0,0,1-4.82,4.77A9.23,9.23,0,0,1,554.71,172.84Zm.06-3.41a5.13,5.13,0,0,0,2.15-.44,5.05,5.05,0,0,0,1.63-1.18,5.25,5.25,0,0,0,1-1.74,6.32,6.32,0,0,0,.35-2.09v-.07a6.06,6.06,0,0,0-.38-2.14,5.48,5.48,0,0,0-1.08-1.75,5.28,5.28,0,0,0-1.65-1.19,5.3,5.3,0,0,0-4.23,0,4.9,4.9,0,0,0-2.66,2.91,6.44,6.44,0,0,0-.35,2.11v.06A6,6,0,0,0,550,166a5.71,5.71,0,0,0,1.08,1.75,5.15,5.15,0,0,0,1.65,1.2A4.94,4.94,0,0,0,554.77,169.43Z"/><path class="cls-1" d="M567.89,155.31h4V158a8.68,8.68,0,0,1,.92-1.16,5.8,5.8,0,0,1,1.16-1,6.07,6.07,0,0,1,1.46-.67,5.89,5.89,0,0,1,1.8-.25,5.71,5.71,0,0,1,4.5,1.79,7,7,0,0,1,1.58,4.8v10.91h-4v-9.72a4.52,4.52,0,0,0-.95-3.09,3.38,3.38,0,0,0-2.68-1.08,3.66,3.66,0,0,0-2.77,1.11,4.36,4.36,0,0,0-1.06,3.13v9.65h-4Z"/></svg>