<svg width="32" height="32" viewBox="0 0 32 32" fill="none" xmlns="http://www.w3.org/2000/svg">
<path d="M16.0024 28.0547C12.7224 28.0547 12.3358 28.0374 11.0558 27.9814C10.0576 27.9486 9.07235 27.7456 8.14244 27.3814C6.53352 26.7552 5.2613 25.4825 4.63577 23.8734C4.28552 22.9401 4.0966 21.954 4.07711 20.9574C4.00244 19.68 4.00244 19.2614 4.00244 16.0067C4.00244 12.7174 4.01977 12.3334 4.07711 11.06C4.09702 10.0647 4.28594 9.08006 4.63577 8.14805C5.26062 6.53675 6.53491 5.26294 8.14644 4.63871C9.07797 4.28698 10.0629 4.09757 11.0584 4.07871C12.3318 4.00671 12.7504 4.00671 16.0024 4.00671C19.3091 4.00671 19.6891 4.02405 20.9491 4.07871C21.9472 4.09774 22.9348 4.28713 23.8691 4.63871C25.4802 5.26365 26.7542 6.53721 27.3798 8.14805C27.7359 9.09364 27.9259 10.0937 27.9411 11.104C28.0158 12.3814 28.0158 12.7987 28.0158 16.052C28.0158 19.3054 27.9971 19.732 27.9411 20.9947C27.9213 21.9923 27.7319 22.9793 27.3811 23.9134C26.754 25.5237 25.4799 26.7968 23.8691 27.4227C22.9361 27.7723 21.9506 27.9612 20.9544 27.9814C19.6811 28.0547 19.2638 28.0547 16.0024 28.0547ZM15.9571 6.11738C12.6958 6.11738 12.3571 6.13338 11.0838 6.19071C10.3238 6.20078 9.57108 6.34104 8.85844 6.60538C7.80611 7.00806 6.97341 7.83737 6.56644 8.88805C6.30006 9.60845 6.15979 10.3694 6.15177 11.1374C6.08111 12.4294 6.08111 12.768 6.08111 16.0067C6.08111 19.2067 6.09311 19.5947 6.15177 20.8787C6.16371 21.639 6.3039 22.3918 6.56644 23.1054C6.97401 24.1554 7.80657 24.9841 8.85844 25.3867C9.57059 25.6528 10.3236 25.7931 11.0838 25.8014C12.3744 25.876 12.7144 25.876 15.9571 25.876C19.2278 25.876 19.5664 25.86 20.8291 25.8014C21.5896 25.7921 22.3429 25.6519 23.0558 25.3867C24.1017 24.9806 24.929 24.1538 25.3358 23.108C25.6016 22.387 25.7419 21.6258 25.7504 20.8574H25.7651C25.8224 19.5827 25.8224 19.2427 25.8224 15.9854C25.8224 12.728 25.8078 12.3854 25.7504 11.112C25.7385 10.3526 25.5983 9.60073 25.3358 8.88805C24.9299 7.84081 24.1025 7.01244 23.0558 6.60538C22.343 6.3397 21.5897 6.19941 20.8291 6.19071C19.5398 6.11738 19.2024 6.11738 15.9571 6.11738ZM16.0024 22.1654C13.5091 22.167 11.2603 20.6664 10.3049 18.3633C9.34952 16.0603 9.87565 13.4085 11.638 11.6447C13.4003 9.88084 16.0516 9.35241 18.3555 10.3058C20.6593 11.2592 22.1619 13.5067 22.1624 16C22.1588 19.4015 19.4039 22.1588 16.0024 22.1654ZM16.0024 11.9974C13.7933 11.9974 12.0024 13.7882 12.0024 15.9974C12.0024 18.2065 13.7933 19.9974 16.0024 19.9974C18.2116 19.9974 20.0024 18.2065 20.0024 15.9974C19.9973 13.7904 18.2095 12.0025 16.0024 11.9974ZM22.4024 11.0467C21.6097 11.0438 20.969 10.3995 20.9704 9.60673C20.9719 8.81395 21.615 8.17206 22.4078 8.17206C23.2005 8.17206 23.8436 8.81394 23.8451 9.60671C23.8455 9.9892 23.6935 10.3561 23.4228 10.6263C23.1521 10.8965 22.7849 11.0478 22.4024 11.0467Z" fill="white"/>
</svg>
