<svg width="24" height="24" viewBox="0 0 24 24" fill="none" xmlns="http://www.w3.org/2000/svg">
<path d="M18.677 19.6076L12.962 13.8916C10.4196 15.6991 6.91642 15.257 4.90285 12.8746C2.88929 10.4921 3.03714 6.96422 5.24298 4.75863C7.44824 2.55208 10.9765 2.40359 13.3594 4.41705C15.7422 6.4305 16.1846 9.93408 14.377 12.4766L20.092 18.1926L18.678 19.6066L18.677 19.6076ZM9.48498 5.00062C7.58868 5.00019 5.95267 6.33131 5.56745 8.18807C5.18224 10.0448 6.15369 11.9169 7.89366 12.6709C9.63362 13.4248 11.6639 12.8535 12.7552 11.3027C13.8466 9.7519 13.699 7.64795 12.402 6.26463L13.007 6.86463L12.325 6.18463L12.313 6.17263C11.5648 5.41981 10.5464 4.99776 9.48498 5.00062Z" fill="#002156"/>
</svg>
