<svg width="216" height="44" viewBox="0 0 216 44" fill="none" xmlns="http://www.w3.org/2000/svg">
<path d="M59.1041 29.024C57.5708 29.024 56.2441 28.6907 55.1241 28.024C54.0034 27.3636 53.0998 26.3905 52.5241 25.224C51.9081 24.008 51.6001 22.574 51.6001 20.922C51.6001 19.27 51.9101 17.8247 52.5301 16.586C53.1107 15.4081 54.0218 14.4248 55.1521 13.756C56.3526 13.0697 57.7176 12.724 59.1001 12.7561C60.4758 12.7222 61.8342 13.0682 63.0261 13.756C64.1477 14.4287 65.0507 15.4116 65.6261 16.586C66.2434 17.8034 66.5521 19.2487 66.5521 20.922C66.5521 22.5954 66.2488 24.0294 65.6421 25.224C65.0736 26.3903 64.1751 27.3639 63.0581 28.024C61.9408 28.6907 60.6228 29.024 59.1041 29.024ZM59.1041 26.002C59.7627 26.0321 60.4125 25.8417 60.9508 25.461C61.4891 25.0803 61.8851 24.531 62.0761 23.9C62.3588 23.1627 62.4994 22.188 62.4981 20.976C62.4981 19.728 62.3561 18.7227 62.0721 17.96C61.7881 17.1974 61.3881 16.6427 60.8721 16.296C60.3414 15.9552 59.7239 15.774 59.0931 15.774C58.4623 15.774 57.8448 15.9552 57.3141 16.296C56.7513 16.7155 56.3321 17.2989 56.1141 17.966C55.8261 18.73 55.6821 19.73 55.6821 20.966C55.6821 22.178 55.8261 23.1527 56.1141 23.89C56.3347 24.5369 56.7549 25.0971 57.3141 25.49C57.8471 25.8336 58.4701 26.0112 59.1041 26V26.002Z" fill="white"/>
<path d="M68.4121 28.8V17.484H72.0901V19.072C72.2689 18.7861 72.484 18.5246 72.7301 18.294C73.0269 18.0195 73.373 17.8037 73.7501 17.658C74.2302 17.4763 74.7409 17.3887 75.2541 17.4C75.9156 17.3984 76.5702 17.5346 77.1761 17.8C77.7795 18.0649 78.292 18.5009 78.6501 19.054C79.0275 19.6287 79.2168 20.3787 79.2181 21.304V28.8H75.4741V21.8C75.4882 21.5882 75.4519 21.3761 75.3681 21.181C75.2843 20.986 75.1555 20.8136 74.9921 20.678C74.6779 20.4286 74.2873 20.2951 73.8861 20.3C73.6046 20.3004 73.3257 20.354 73.0641 20.458C72.8053 20.5566 72.5755 20.719 72.3961 20.93C72.2172 21.1505 72.1242 21.4283 72.1341 21.712V28.8H68.4121Z" fill="white"/>
<path d="M85.81 29.0241C84.27 29.0241 83.0766 28.4907 82.23 27.4241C81.3833 26.3574 80.96 24.9081 80.96 23.0761C80.9371 22.0271 81.1136 20.9833 81.48 20.0001C81.7775 19.1911 82.306 18.4873 83 17.9761C83.7105 17.4875 84.5581 17.2381 85.42 17.2641C85.7563 17.2641 86.0917 17.3009 86.42 17.3741C86.7351 17.4445 87.0416 17.5491 87.334 17.6861C87.617 17.8195 87.8797 17.9926 88.114 18.2001C88.3445 18.4011 88.5393 18.6398 88.69 18.9061V12.5341H92.424V28.8001H89.762L89.324 26.4781C89.2094 26.8279 89.0551 27.1634 88.864 27.4781C88.6755 27.7868 88.4353 28.0607 88.154 28.2881C87.8546 28.5255 87.5163 28.7089 87.154 28.8301C86.7195 28.9672 86.2655 29.0327 85.81 29.0241ZM86.664 26.3861C86.9568 26.3997 87.2483 26.3383 87.5108 26.2078C87.7733 26.0772 87.9981 25.8818 88.164 25.6401C88.5146 25.1441 88.69 24.2827 88.69 23.0561C88.7073 22.4546 88.6276 21.8542 88.454 21.2781C88.3393 20.8733 88.1 20.515 87.77 20.2541C87.45 20.0284 87.0652 19.9133 86.674 19.9261C86.3886 19.9229 86.1063 19.9849 85.8484 20.1072C85.5906 20.2296 85.364 20.4091 85.186 20.6321C84.786 21.1027 84.586 21.9107 84.586 23.0561C84.586 24.2401 84.7793 25.0907 85.166 25.6081C85.333 25.8503 85.557 26.0479 85.8181 26.1835C86.0793 26.3192 86.3697 26.3887 86.664 26.3861Z" fill="white"/>
<path d="M98.0523 23.9996C98.031 24.4483 98.1131 24.8958 98.2923 25.3076C98.4429 25.6404 98.6913 25.9194 99.0043 26.1076C99.3305 26.2953 99.702 26.39 100.078 26.3816C100.51 26.3891 100.937 26.2895 101.32 26.0916C101.708 25.8696 101.994 25.5062 102.12 25.0776H105.448C105.342 25.8666 105 26.6053 104.468 27.1976C103.934 27.7879 103.274 28.25 102.536 28.5496C101.79 28.8605 100.99 29.0203 100.182 29.0196C99.1256 29.0435 98.0803 28.7985 97.1443 28.3076C96.2872 27.8502 95.5798 27.1559 95.1063 26.3076C94.6035 25.3777 94.3525 24.3325 94.3783 23.2756C94.3648 22.2322 94.5935 21.1998 95.0463 20.2596C95.4752 19.3688 96.1426 18.6143 96.9743 18.0796C97.8813 17.5172 98.9335 17.2335 100 17.2637C101.2 17.2637 102.2 17.5136 103 18.0136C103.796 18.5042 104.427 19.2216 104.812 20.0736C105.23 21.0173 105.435 22.0417 105.412 23.0736V23.9996H98.0523ZM98.0403 21.8536H101.96C101.965 21.5003 101.89 21.1505 101.742 20.8296C101.6 20.5244 101.371 20.2677 101.084 20.0916C100.757 19.8984 100.38 19.8027 100 19.8156C99.6362 19.8068 99.278 19.9079 98.9723 20.1056C98.6831 20.2965 98.446 20.5563 98.2823 20.8616C98.1162 21.1647 98.0328 21.5061 98.0403 21.8516V21.8536Z" fill="white"/>
<path d="M107.414 28.7998V17.4838H111V20.3858C111.164 19.8143 111.422 19.2737 111.762 18.7858C112.085 18.3265 112.508 17.9468 113 17.6758C113.52 17.3933 114.105 17.2513 114.696 17.2638C114.778 17.2638 114.848 17.2638 114.91 17.2638C114.951 17.2611 114.991 17.2709 115.026 17.2918V20.8278C114.982 20.8114 114.935 20.8006 114.888 20.7958C114.832 20.7876 114.775 20.7836 114.718 20.7838C114.13 20.7078 113.534 20.7192 112.95 20.8178C112.555 20.8832 112.18 21.04 111.856 21.2758C111.602 21.4698 111.408 21.732 111.296 22.0318C111.189 22.3384 111.135 22.6611 111.138 22.9858V28.7998H107.414Z" fill="white"/>
<path d="M116.512 28.7998V17.4838H120.2V19.0718C120.379 18.7859 120.594 18.5243 120.84 18.2938C121.136 18.0191 121.482 17.8033 121.858 17.6578C122.336 17.4768 122.845 17.3892 123.356 17.3998C124.018 17.3984 124.672 17.5346 125.278 17.7998C125.881 18.0647 126.393 18.5007 126.75 19.0538C127.13 19.6284 127.32 20.3784 127.32 21.3038V28.7998H123.574V21.7998C123.589 21.5879 123.552 21.3757 123.469 21.1806C123.385 20.9855 123.256 20.8131 123.092 20.6778C122.779 20.428 122.389 20.2944 121.988 20.2998C121.707 20.3001 121.428 20.3537 121.166 20.4578C120.907 20.5564 120.678 20.7187 120.498 20.9298C120.318 21.1498 120.225 21.4279 120.236 21.7118V28.7998H116.512Z" fill="white"/>
<path d="M132.8 23.9998C132.779 24.4484 132.861 24.896 133.04 25.3078C133.191 25.6405 133.439 25.9196 133.752 26.1078C134.078 26.2952 134.449 26.3899 134.824 26.3818C135.256 26.3895 135.684 26.2899 136.068 26.0918C136.456 25.8698 136.742 25.5064 136.868 25.0778H140.2C140.094 25.8668 139.752 26.6055 139.22 27.1978C138.686 27.7876 138.025 28.2497 137.288 28.5498C136.542 28.8607 135.742 29.0204 134.934 29.0198C133.878 29.0437 132.832 28.7987 131.896 28.3078C131.039 27.8503 130.332 27.1561 129.858 26.3078C129.355 25.3779 129.104 24.3327 129.13 23.2758C129.117 22.2322 129.347 21.1998 129.8 20.2598C130.229 19.369 130.897 18.6144 131.728 18.0798C132.637 17.5163 133.691 17.2325 134.76 17.2638C135.96 17.2638 136.96 17.5138 137.76 18.0138C138.556 18.5043 139.187 19.2218 139.572 20.0738C139.99 21.0175 140.195 22.0419 140.172 23.0738V23.9998H132.8ZM132.8 21.8518H136.72C136.725 21.4985 136.65 21.1487 136.502 20.8278C136.36 20.5225 136.131 20.2658 135.844 20.0898C135.516 19.898 135.14 19.803 134.76 19.8158C134.396 19.807 134.037 19.908 133.73 20.1058C133.442 20.2973 133.206 20.557 133.042 20.8618C132.875 21.1646 132.792 21.5062 132.8 21.8518Z" fill="white"/>
<path d="M142.166 28.8003V17.4843H145.824V19.0723C146.208 18.5532 146.697 18.12 147.258 17.8003C147.934 17.4268 148.698 17.2429 149.47 17.2683C149.866 17.2707 150.258 17.3382 150.632 17.4683C151.032 17.606 151.407 17.8087 151.742 18.0683C152.096 18.3432 152.396 18.6825 152.624 19.0683C153.011 18.5525 153.499 18.1211 154.058 17.8003C154.658 17.4476 155.344 17.2657 156.04 17.2743C156.48 17.2778 156.917 17.3534 157.332 17.4983C157.774 17.6509 158.182 17.8895 158.532 18.2003C158.907 18.5432 159.203 18.9636 159.4 19.4323C159.638 20.027 159.752 20.6641 159.734 21.3043V28.8003H156V21.8003C156.014 21.4928 155.931 21.1888 155.764 20.9303C155.614 20.7131 155.406 20.5421 155.164 20.4363C154.926 20.3314 154.668 20.2776 154.408 20.2783C154.152 20.2795 153.9 20.3312 153.664 20.4303C153.418 20.5308 153.202 20.6935 153.038 20.9023C152.867 21.1331 152.779 21.4151 152.788 21.7023V28.8003H149.076V21.6563C149.085 21.3849 149.002 21.1183 148.84 20.9003C148.683 20.6965 148.476 20.5361 148.24 20.4343C148.007 20.3298 147.755 20.2759 147.5 20.2763C147.242 20.2781 146.987 20.3318 146.75 20.4343C146.504 20.5362 146.289 20.7002 146.126 20.9103C145.956 21.1414 145.869 21.4235 145.88 21.7103V28.8003H142.166Z" fill="white"/>
<path d="M165.238 23.9998C165.216 24.4484 165.299 24.896 165.478 25.3078C165.628 25.6405 165.877 25.9196 166.19 26.1078C166.516 26.2955 166.888 26.3902 167.264 26.3818C167.695 26.3893 168.122 26.2896 168.506 26.0918C168.893 25.8698 169.18 25.5064 169.306 25.0778H172.634C172.527 25.8668 172.186 26.6055 171.654 27.1978C171.12 27.7885 170.46 28.2507 169.722 28.5498C168.976 28.8607 168.176 29.0204 167.368 29.0198C166.311 29.0437 165.266 28.7987 164.33 28.3078C163.473 27.8503 162.765 27.1561 162.292 26.3078C161.789 25.3779 161.538 24.3327 161.564 23.2758C161.551 22.2325 161.78 21.2003 162.232 20.2598C162.661 19.369 163.328 18.6144 164.16 18.0798C165.069 17.5163 166.123 17.2325 167.192 17.2638C168.392 17.2638 169.392 17.5138 170.192 18.0138C170.988 18.5043 171.619 19.2218 172.004 20.0738C172.422 21.0175 172.627 22.0419 172.604 23.0738V23.9998H165.238ZM165.226 21.8538H169.146C169.15 21.5005 169.076 21.1507 168.928 20.8298C168.786 20.5245 168.557 20.2678 168.27 20.0918C167.942 19.8993 167.566 19.8042 167.186 19.8178C166.822 19.809 166.464 19.9101 166.158 20.1078C165.869 20.2987 165.632 20.5585 165.468 20.8638C165.302 21.1663 165.219 21.507 165.226 21.8518V21.8538Z" fill="white"/>
<path d="M174.6 28.8V17.484H178.278V19.072C178.457 18.7861 178.672 18.5246 178.918 18.294C179.215 18.0195 179.561 17.8037 179.938 17.658C180.418 17.4763 180.929 17.3887 181.442 17.4C182.104 17.3984 182.758 17.5346 183.364 17.8C183.967 18.0649 184.48 18.5009 184.838 19.054C185.213 19.6287 185.4 20.3787 185.4 21.304V28.8H181.662V21.8C181.677 21.5882 181.64 21.3759 181.557 21.1808C181.473 20.9857 181.344 20.8134 181.18 20.678C180.866 20.4286 180.475 20.2951 180.074 20.3C179.793 20.3004 179.514 20.354 179.252 20.458C178.993 20.5566 178.764 20.719 178.584 20.93C178.405 21.1505 178.312 21.4283 178.322 21.712V28.8H174.6Z" fill="white"/>
<path d="M187.542 28.8001V24.9181H191.542V28.8001H187.542Z" fill="white"/>
<path d="M194.09 28.7999V17.4839H197.768V19.0719C197.947 18.786 198.162 18.5244 198.408 18.2939C198.705 18.0193 199.051 17.8035 199.428 17.6579C199.908 17.4782 200.419 17.3926 200.932 17.4059C201.593 17.4043 202.248 17.5405 202.854 17.8059C203.457 18.0708 203.97 18.5068 204.328 19.0599C204.705 19.6345 204.894 20.3845 204.896 21.3099V28.7999H201.152V21.7999C201.166 21.588 201.13 21.3758 201.046 21.1807C200.962 20.9856 200.833 20.8132 200.67 20.6779C200.356 20.4284 199.965 20.2949 199.564 20.2999C199.282 20.3002 199.003 20.3538 198.742 20.4579C198.483 20.556 198.254 20.7185 198.076 20.9299C197.896 21.1497 197.802 21.4278 197.812 21.7119V28.7999H194.09Z" fill="white"/>
<path d="M211.182 29.0241C210.239 29.0241 209.5 28.9181 208.964 28.7061C208.501 28.5484 208.093 28.2618 207.788 27.8801C207.541 27.5464 207.381 27.1568 207.322 26.7461C207.26 26.3369 207.229 25.9238 207.228 25.5101V12.5341H210.876V25.0281C210.868 25.3423 210.952 25.6521 211.116 25.9201C211.276 26.1721 211.624 26.3301 212.156 26.3961L212.648 26.4301V28.7181C212.416 28.7981 212.174 28.8701 211.926 28.9321C211.683 28.9931 211.433 29.024 211.182 29.0241Z" fill="white"/>
<path fill-rule="evenodd" clip-rule="evenodd" d="M14.6779 35.61C15.0339 35.61 15.3819 35.7155 15.6779 35.9133C15.9739 36.1111 16.2046 36.3922 16.3409 36.7211C16.4771 37.05 16.5127 37.412 16.4433 37.7611C16.3738 38.1103 16.2024 38.431 15.9507 38.6828C15.6989 38.9345 15.3782 39.1059 15.029 39.1754C14.6799 39.2448 14.318 39.2092 13.9891 39.0729C13.6601 38.9367 13.379 38.706 13.1812 38.41C12.9835 38.114 12.8779 37.766 12.8779 37.41C12.8779 36.9326 13.0675 36.4747 13.4051 36.1372C13.7427 35.7996 14.2005 35.61 14.6779 35.61ZM19.8019 35.61C20.1579 35.61 20.5059 35.7155 20.8019 35.9133C21.0979 36.1111 21.3286 36.3922 21.4649 36.7211C21.6011 37.05 21.6367 37.412 21.5673 37.7611C21.4978 38.1103 21.3264 38.431 21.0747 38.6828C20.8229 38.9345 20.5022 39.1059 20.153 39.1754C19.8039 39.2448 19.442 39.2092 19.1131 39.0729C18.7841 38.9367 18.503 38.706 18.3052 38.41C18.1075 38.114 18.0019 37.766 18.0019 37.41C18.0019 36.9326 18.1915 36.4747 18.5291 36.1372C18.8667 35.7996 19.3245 35.61 19.8019 35.61ZM14.6779 30.486C15.0339 30.486 15.3819 30.5915 15.6779 30.7893C15.9739 30.9871 16.2046 31.2682 16.3409 31.5971C16.4771 31.926 16.5127 32.288 16.4433 32.6371C16.3738 32.9863 16.2024 33.307 15.9507 33.5588C15.6989 33.8105 15.3782 33.9819 15.029 34.0514C14.6799 34.1208 14.318 34.0852 13.9891 33.9489C13.6601 33.8127 13.379 33.582 13.1812 33.286C12.9835 32.99 12.8779 32.642 12.8779 32.286C12.8779 31.8086 13.0675 31.3507 13.4051 31.0132C13.7427 30.6756 14.2005 30.486 14.6779 30.486ZM9.55388 30.486C9.90989 30.486 10.2579 30.5915 10.5539 30.7893C10.8499 30.9871 11.0806 31.2682 11.2169 31.5971C11.3531 31.926 11.3888 32.288 11.3193 32.6371C11.2498 32.9863 11.0784 33.307 10.8267 33.5588C10.5749 33.8105 10.2542 33.9819 9.90505 34.0514C9.55588 34.1208 9.19396 34.0852 8.86505 33.9489C8.53615 33.8127 8.25502 33.582 8.05724 33.286C7.85945 32.99 7.75388 32.642 7.75388 32.286C7.75388 31.8086 7.94353 31.3507 8.28109 31.0132C8.61866 30.6756 9.07649 30.486 9.55388 30.486ZM19.8019 30.486C20.1579 30.486 20.5059 30.5915 20.8019 30.7893C21.0979 30.9871 21.3286 31.2682 21.4649 31.5971C21.6011 31.926 21.6367 32.288 21.5673 32.6371C21.4978 32.9863 21.3264 33.307 21.0747 33.5588C20.8229 33.8105 20.5022 33.9819 20.153 34.0514C19.8039 34.1208 19.442 34.0852 19.1131 33.9489C18.7841 33.8127 18.503 33.582 18.3052 33.286C18.1075 32.99 18.0019 32.642 18.0019 32.286C18.0019 31.8086 18.1915 31.3507 18.5291 31.0132C18.8667 30.6756 19.3245 30.486 19.8019 30.486ZM9.55388 25.362C9.90989 25.362 10.2579 25.4675 10.5539 25.6653C10.8499 25.8631 11.0806 26.1442 11.2169 26.4731C11.3531 26.802 11.3888 27.164 11.3193 27.5131C11.2498 27.8623 11.0784 28.183 10.8267 28.4348C10.5749 28.6865 10.2542 28.8579 9.90505 28.9274C9.55588 28.9968 9.19396 28.9612 8.86505 28.8249C8.53615 28.6887 8.25502 28.458 8.05724 28.162C7.85945 27.866 7.75388 27.518 7.75388 27.162C7.75388 26.6846 7.94353 26.2267 8.28109 25.8892C8.61866 25.5516 9.07649 25.362 9.55388 25.362ZM4.42988 25.362C4.78589 25.362 5.1339 25.4675 5.42991 25.6653C5.72592 25.8631 5.95663 26.1442 6.09287 26.4731C6.2291 26.802 6.26475 27.164 6.1953 27.5131C6.12584 27.8623 5.95441 28.183 5.70268 28.4348C5.45094 28.6865 5.13021 28.8579 4.78105 28.9274C4.43188 28.9968 4.06996 28.9612 3.74105 28.8249C3.41215 28.6887 3.13102 28.458 2.93324 28.162C2.73545 27.866 2.62988 27.518 2.62988 27.162C2.62988 26.6846 2.81953 26.2267 3.15709 25.8892C3.49466 25.5516 3.95249 25.362 4.42988 25.362ZM9.55388 20.238C9.90989 20.238 10.2579 20.3435 10.5539 20.5413C10.8499 20.7391 11.0806 21.0202 11.2169 21.3491C11.3531 21.678 11.3888 22.04 11.3193 22.3891C11.2498 22.7383 11.0784 23.059 10.8267 23.3108C10.5749 23.5625 10.2542 23.7339 9.90505 23.8034C9.55588 23.8728 9.19396 23.8372 8.86505 23.7009C8.53615 23.5647 8.25502 23.334 8.05724 23.038C7.85945 22.742 7.75388 22.394 7.75388 22.038C7.75388 21.5606 7.94353 21.1027 8.28109 20.7652C8.61866 20.4276 9.07649 20.238 9.55388 20.238ZM4.42988 20.238C4.78589 20.238 5.1339 20.3435 5.42991 20.5413C5.72592 20.7391 5.95663 21.0202 6.09287 21.3491C6.2291 21.678 6.26475 22.04 6.1953 22.3891C6.12584 22.7383 5.95441 23.059 5.70268 23.3108C5.45094 23.5625 5.13021 23.7339 4.78105 23.8034C4.43188 23.8728 4.06996 23.8372 3.74105 23.7009C3.41215 23.5647 3.13102 23.334 2.93324 23.038C2.73545 22.742 2.62988 22.394 2.62988 22.038C2.62988 21.5606 2.81953 21.1027 3.15709 20.7652C3.49466 20.4276 3.95249 20.238 4.42988 20.238ZM9.55388 15.114C9.90989 15.114 10.2579 15.2195 10.5539 15.4173C10.8499 15.6151 11.0806 15.8962 11.2169 16.2251C11.3531 16.554 11.3888 16.916 11.3193 17.2651C11.2498 17.6143 11.0784 17.935 10.8267 18.1868C10.5749 18.4385 10.2542 18.6099 9.90505 18.6794C9.55588 18.7488 9.19396 18.7132 8.86505 18.577C8.53615 18.4407 8.25502 18.21 8.05724 17.914C7.85945 17.618 7.75388 17.27 7.75388 16.914C7.75388 16.4366 7.94353 15.9787 8.28109 15.6412C8.61866 15.3036 9.07649 15.114 9.55388 15.114ZM4.42988 15.114C4.78589 15.114 5.1339 15.2195 5.42991 15.4173C5.72592 15.6151 5.95663 15.8962 6.09287 16.2251C6.2291 16.554 6.26475 16.916 6.1953 17.2651C6.12584 17.6143 5.95441 17.935 5.70268 18.1868C5.45094 18.4385 5.13021 18.6099 4.78105 18.6794C4.43188 18.7488 4.06996 18.7132 3.74105 18.577C3.41215 18.4407 3.13102 18.21 2.93324 17.914C2.73545 17.618 2.62988 17.27 2.62988 16.914C2.62988 16.4366 2.81953 15.9787 3.15709 15.6412C3.49466 15.3036 3.95249 15.114 4.42988 15.114ZM14.6779 9.99997C15.0339 9.99997 15.3819 10.1055 15.6779 10.3033C15.9739 10.5011 16.2046 10.7822 16.3409 11.1111C16.4771 11.44 16.5127 11.802 16.4433 12.1511C16.3738 12.5003 16.2024 12.821 15.9507 13.0728C15.6989 13.3245 15.3782 13.4959 15.029 13.5654C14.6799 13.6348 14.318 13.5992 13.9891 13.463C13.6601 13.3267 13.379 13.096 13.1812 12.8C12.9835 12.504 12.8779 12.156 12.8779 11.8C12.8779 11.3226 13.0675 10.8647 13.4051 10.5272C13.7427 10.1896 14.2005 9.99997 14.6779 9.99997ZM9.55388 9.99997C9.90989 9.99997 10.2579 10.1055 10.5539 10.3033C10.8499 10.5011 11.0806 10.7822 11.2169 11.1111C11.3531 11.44 11.3888 11.802 11.3193 12.1511C11.2498 12.5003 11.0784 12.821 10.8267 13.0728C10.5749 13.3245 10.2542 13.4959 9.90505 13.5654C9.55588 13.6348 9.19396 13.5992 8.86505 13.463C8.53615 13.3267 8.25502 13.096 8.05724 12.8C7.85945 12.504 7.75388 12.156 7.75388 11.8C7.75388 11.3226 7.94353 10.8647 8.28109 10.5272C8.61866 10.1896 9.07649 9.99997 9.55388 9.99997ZM19.7999 9.99997C20.1559 9.99997 20.5039 10.1055 20.7999 10.3033C21.0959 10.5011 21.3266 10.7822 21.4629 11.1111C21.5991 11.44 21.6347 11.802 21.5653 12.1511C21.4958 12.5003 21.3244 12.821 21.0727 13.0728C20.8209 13.3245 20.5002 13.4959 20.151 13.5654C19.8019 13.6348 19.44 13.5992 19.1111 13.463C18.7821 13.3267 18.501 13.096 18.3032 12.8C18.1055 12.504 17.9999 12.156 17.9999 11.8C17.9999 11.3226 18.1895 10.8647 18.5271 10.5272C18.8647 10.1896 19.3225 9.99997 19.7999 9.99997ZM14.6779 4.86597C15.0339 4.86597 15.3819 4.97153 15.6779 5.16932C15.9739 5.36711 16.2046 5.64823 16.3409 5.97714C16.4771 6.30604 16.5127 6.66796 16.4433 7.01713C16.3738 7.36629 16.2024 7.68702 15.9507 7.93876C15.6989 8.19049 15.3782 8.36193 15.029 8.43138C14.6799 8.50083 14.318 8.46519 13.9891 8.32895C13.6601 8.19271 13.379 7.962 13.1812 7.66599C12.9835 7.36998 12.8779 7.02197 12.8779 6.66597C12.8779 6.18858 13.0675 5.73074 13.4051 5.39317C13.7427 5.05561 14.2005 4.86597 14.6779 4.86597ZM19.8019 4.86597C20.1579 4.86597 20.5059 4.97153 20.8019 5.16932C21.0979 5.36711 21.3286 5.64823 21.4649 5.97714C21.6011 6.30604 21.6367 6.66796 21.5673 7.01713C21.4978 7.36629 21.3264 7.68702 21.0747 7.93876C20.8229 8.19049 20.5022 8.36193 20.153 8.43138C19.8039 8.50083 19.442 8.46519 19.1131 8.32895C18.7841 8.19271 18.503 7.962 18.3052 7.66599C18.1075 7.36998 18.0019 7.02197 18.0019 6.66597C18.0019 6.18858 18.1915 5.73074 18.5291 5.39317C18.8667 5.05561 19.3245 4.86597 19.8019 4.86597Z" fill="white"/>
<path fill-rule="evenodd" clip-rule="evenodd" d="M23.1242 4.46814C31.8802 5.25014 38.8002 12.7761 38.8002 22.0001C38.8002 31.2241 31.8722 38.7501 23.1162 39.5321V31.4301C27.4742 30.6781 30.7582 26.7121 30.7582 22.0001C30.7582 17.2881 27.4742 13.3221 23.1162 12.5701V4.46814H23.1242Z" fill="white"/>
</svg>
