<svg width="208" height="42" viewBox="0 0 208 42" fill="none" xmlns="http://www.w3.org/2000/svg">
<path d="M56.915 27.705C55.4385 27.705 54.161 27.3868 53.0824 26.7505C52.0033 26.12 51.1332 25.1912 50.5787 24.0777C49.9856 22.917 49.689 21.5482 49.689 19.9713C49.689 18.3944 49.9875 17.0147 50.5845 15.8324C51.1437 14.708 52.021 13.7693 53.1094 13.131C54.2655 12.4759 55.5799 12.1459 56.9112 12.1765C58.2359 12.1442 59.544 12.4744 60.6918 13.131C61.7719 13.7731 62.6414 14.7113 63.1955 15.8324C63.7899 16.9944 64.0872 18.374 64.0872 19.9713C64.0872 21.5686 63.7951 22.9374 63.2109 24.0777C62.6634 25.191 61.7982 26.1203 60.7226 26.7505C59.6466 27.3868 58.3775 27.705 56.915 27.705ZM56.915 24.8204C57.5492 24.8491 58.175 24.6674 58.6933 24.304C59.2117 23.9406 59.593 23.4162 59.777 22.8139C60.0492 22.1101 60.1846 21.1797 60.1833 20.0228C60.1833 18.8316 60.0466 17.8719 59.7731 17.1439C59.4996 16.4159 59.1144 15.8865 58.6176 15.5556C58.1065 15.2302 57.5119 15.0572 56.9044 15.0572C56.297 15.0572 55.7024 15.2302 55.1913 15.5556C54.6494 15.956 54.2457 16.5128 54.0358 17.1497C53.7584 17.8789 53.6198 18.8335 53.6198 20.0133C53.6198 21.1702 53.7584 22.1006 54.0358 22.8044C54.2483 23.4218 54.6528 23.9566 55.1913 24.3317C55.7046 24.6596 56.3045 24.8291 56.915 24.8185V24.8204Z" fill="#072253"/>
<path d="M65.8779 27.4912V16.6895H69.4197V18.2053C69.5919 17.9324 69.799 17.6828 70.036 17.4627C70.3218 17.2006 70.6551 16.9946 71.0182 16.8556C71.4806 16.6821 71.9723 16.5985 72.4665 16.6093C73.1035 16.6078 73.7338 16.7378 74.3173 16.9911C74.8984 17.244 75.3918 17.6602 75.7367 18.1881C76.1001 18.7367 76.2824 19.4526 76.2837 20.3359V27.4912H72.6784V20.8093C72.692 20.6071 72.657 20.4046 72.5763 20.2185C72.4956 20.0323 72.3715 19.8677 72.2142 19.7383C71.9116 19.5002 71.5355 19.3728 71.1492 19.3775C70.8781 19.3779 70.6095 19.429 70.3576 19.5283C70.1084 19.6225 69.8871 19.7774 69.7144 19.9789C69.5421 20.1893 69.4525 20.4545 69.4621 20.7253V27.4912H65.8779Z" fill="#072253"/>
<path d="M82.6317 27.7048C81.1488 27.7048 79.9996 27.1957 79.1843 26.1775C78.369 25.1594 77.9614 23.7759 77.9614 22.0272C77.9394 21.0259 78.1093 20.0295 78.4621 19.091C78.7486 18.3188 79.2575 17.647 79.9258 17.159C80.61 16.6927 81.4263 16.4546 82.2562 16.4794C82.5801 16.4794 82.903 16.5146 83.2191 16.5844C83.5226 16.6516 83.8177 16.7515 84.0993 16.8822C84.3719 17.0096 84.6248 17.1748 84.8504 17.3728C85.0724 17.5647 85.26 17.7926 85.4051 18.0467V11.9644H89.0008V27.491H86.4374L86.0156 25.2745C85.9053 25.6085 85.7566 25.9288 85.5726 26.2291C85.3911 26.5237 85.1598 26.7853 84.8889 27.0023C84.6007 27.2289 84.2748 27.4039 83.926 27.5196C83.5075 27.6505 83.0704 27.7131 82.6317 27.7048ZM83.4541 25.1867C83.7361 25.1997 84.0168 25.1411 84.2696 25.0165C84.5223 24.8919 84.7388 24.7054 84.8985 24.4746C85.2362 24.0012 85.4051 23.179 85.4051 22.0081C85.4218 21.4339 85.3451 20.8609 85.1778 20.3109C85.0674 19.9245 84.8369 19.5825 84.5191 19.3334C84.211 19.1181 83.8405 19.0082 83.4637 19.0204C83.1889 19.0174 82.9171 19.0765 82.6688 19.1933C82.4205 19.3101 82.2023 19.4814 82.0308 19.6943C81.6457 20.1435 81.4531 20.9148 81.4531 22.0081C81.4531 23.1383 81.6392 23.9503 82.0116 24.4441C82.1725 24.6753 82.3881 24.8639 82.6396 24.9934C82.8911 25.1229 83.1707 25.1893 83.4541 25.1867Z" fill="#072253"/>
<path d="M94.4205 22.9085C94.4 23.3367 94.4791 23.7639 94.6516 24.157C94.7967 24.4746 95.0358 24.7409 95.3372 24.9206C95.6514 25.0997 96.0091 25.1902 96.3715 25.1822C96.7871 25.1893 97.198 25.0942 97.5675 24.9054C97.9407 24.6934 98.2167 24.3466 98.3378 23.9374H101.543C101.44 24.6906 101.111 25.3957 100.599 25.9611C100.085 26.5245 99.4486 26.9656 98.7384 27.2516C98.0202 27.5484 97.2497 27.7009 96.4716 27.7003C95.4541 27.723 94.4475 27.4892 93.5461 27.0206C92.7208 26.584 92.0396 25.9213 91.5836 25.1115C91.0994 24.2239 90.8578 23.2262 90.8826 22.2174C90.8696 21.2213 91.0898 20.2359 91.5259 19.3385C91.9389 18.4881 92.5816 17.7679 93.3824 17.2575C94.2559 16.7207 95.2691 16.4499 96.2964 16.4786C97.4519 16.4786 98.4149 16.7173 99.1852 17.1945C99.9517 17.6628 100.559 18.3476 100.93 19.1609C101.333 20.0617 101.53 21.0395 101.508 22.0245V22.9085H94.4205ZM94.409 20.86H98.1838C98.188 20.5228 98.1163 20.1888 97.9738 19.8825C97.837 19.5911 97.6166 19.3461 97.3402 19.1781C97.0246 18.9936 96.6625 18.9023 96.2964 18.9146C95.9458 18.9062 95.6009 19.0027 95.3064 19.1915C95.028 19.3736 94.7996 19.6216 94.642 19.9131C94.4821 20.2024 94.4018 20.5283 94.409 20.8581V20.86Z" fill="#072253"/>
<path d="M103.436 27.4906V16.689H106.889V19.4591C107.047 18.9135 107.295 18.3975 107.623 17.9318C107.933 17.4933 108.341 17.131 108.815 16.8723C109.315 16.6026 109.878 16.467 110.448 16.479C110.527 16.479 110.594 16.479 110.654 16.479C110.693 16.4764 110.732 16.4858 110.766 16.5057V19.881C110.723 19.8653 110.678 19.855 110.633 19.8505C110.579 19.8426 110.524 19.8388 110.469 19.839C109.903 19.7664 109.329 19.7773 108.767 19.8715C108.386 19.9338 108.025 20.0835 107.713 20.3086C107.468 20.4938 107.281 20.744 107.174 21.0303C107.071 21.3229 107.019 21.631 107.022 21.9409V27.4906H103.436Z" fill="#072253"/>
<path d="M112.197 27.4903V16.6887H115.748V18.2045C115.92 17.9316 116.127 17.6819 116.364 17.4618C116.649 17.1997 116.982 16.9936 117.345 16.8547C117.805 16.682 118.295 16.5984 118.787 16.6085C119.424 16.6072 120.054 16.7372 120.638 16.9903C121.219 17.2432 121.711 17.6594 122.056 18.1873C122.421 18.7358 122.604 19.4517 122.604 20.335V27.4903H118.997V20.8085C119.011 20.6063 118.976 20.4037 118.896 20.2174C118.815 20.0312 118.691 19.8667 118.533 19.7375C118.231 19.4991 117.856 19.3716 117.47 19.3767C117.199 19.377 116.93 19.4282 116.678 19.5275C116.429 19.6216 116.208 19.7766 116.035 19.978C115.862 20.1881 115.772 20.4535 115.783 20.7245V27.4903H112.197Z" fill="#072253"/>
<path d="M127.881 22.9089C127.861 23.3371 127.94 23.7643 128.113 24.1574C128.258 24.475 128.497 24.7413 128.798 24.921C129.112 25.0999 129.469 25.1903 129.831 25.1826C130.247 25.1899 130.658 25.0948 131.028 24.9058C131.402 24.6938 131.678 24.347 131.799 23.9378H135.007C134.905 24.691 134.576 25.3961 134.064 25.9615C133.549 26.5245 132.913 26.9656 132.203 27.252C131.485 27.5488 130.715 27.7013 129.936 27.7007C128.919 27.7234 127.912 27.4896 127.011 27.021C126.186 26.5844 125.504 25.9217 125.048 25.1119C124.564 24.2243 124.323 23.2266 124.347 22.2178C124.335 21.2216 124.556 20.2361 124.993 19.3389C125.406 18.4885 126.048 17.7683 126.849 17.2579C127.724 16.72 128.74 16.4491 129.769 16.479C130.924 16.479 131.887 16.7177 132.658 17.1949C133.424 17.6632 134.032 18.348 134.403 19.1613C134.805 20.0621 135.003 21.0399 134.98 22.0249V22.9089H127.881ZM127.881 20.8585H131.656C131.661 20.5212 131.589 20.1873 131.446 19.881C131.31 19.5896 131.089 19.3446 130.813 19.1766C130.497 18.9935 130.135 18.9028 129.769 18.915C129.418 18.9066 129.072 19.003 128.777 19.1919C128.5 19.3746 128.272 19.6225 128.115 19.9135C127.954 20.2025 127.873 20.5286 127.881 20.8585Z" fill="#072253"/>
<path d="M136.9 27.4912V16.6896H140.423V18.2054C140.793 17.7099 141.263 17.2964 141.804 16.9912C142.455 16.6347 143.191 16.4592 143.934 16.4834C144.315 16.4857 144.693 16.5502 145.053 16.6743C145.438 16.8058 145.8 16.9993 146.122 17.247C146.463 17.5095 146.751 17.8333 146.971 18.2016C147.344 17.7092 147.813 17.2974 148.352 16.9912C148.93 16.6546 149.59 16.4809 150.261 16.4891C150.684 16.4924 151.105 16.5647 151.505 16.703C151.931 16.8486 152.323 17.0763 152.66 17.373C153.022 17.7004 153.307 18.1016 153.496 18.549C153.725 19.1167 153.835 19.7248 153.818 20.336V27.4912H150.222V20.8094C150.235 20.5159 150.156 20.2257 149.995 19.979C149.85 19.7716 149.65 19.6084 149.417 19.5074C149.188 19.4073 148.94 19.3559 148.689 19.3566C148.443 19.3577 148.199 19.4071 147.973 19.5017C147.736 19.5976 147.528 19.7529 147.37 19.9522C147.205 20.1726 147.12 20.4417 147.129 20.7159V27.4912H143.554V20.672C143.563 20.4128 143.483 20.1584 143.327 19.9503C143.176 19.7558 142.977 19.6027 142.749 19.5055C142.525 19.4057 142.282 19.3543 142.037 19.3547C141.788 19.3564 141.543 19.4077 141.315 19.5055C141.078 19.6027 140.871 19.7593 140.714 19.9599C140.55 20.1805 140.466 20.4497 140.477 20.7235V27.4912H136.9Z" fill="#072253"/>
<path d="M159.118 22.9089C159.097 23.3371 159.176 23.7643 159.349 24.1574C159.494 24.475 159.733 24.7413 160.035 24.921C160.349 25.1001 160.706 25.1906 161.069 25.1826C161.484 25.1897 161.895 25.0946 162.265 24.9058C162.638 24.6938 162.914 24.347 163.035 23.9378H166.24C166.137 24.691 165.808 25.3961 165.296 25.9615C164.782 26.5253 164.146 26.9665 163.436 27.252C162.717 27.5488 161.947 27.7013 161.169 27.7007C160.151 27.7234 159.145 27.4896 158.243 27.021C157.418 26.5844 156.737 25.9217 156.281 25.1119C155.797 24.2243 155.555 23.2266 155.58 22.2178C155.568 21.2218 155.788 20.2366 156.223 19.3389C156.636 18.4885 157.279 17.7683 158.08 17.2579C158.955 16.72 159.97 16.4491 160.999 16.479C162.155 16.479 163.118 16.7177 163.888 17.1949C164.655 17.6632 165.262 18.348 165.633 19.1613C166.036 20.0621 166.233 21.0399 166.211 22.0249V22.9089H159.118ZM159.106 20.8604H162.881C162.885 20.5232 162.814 20.1892 162.671 19.8829C162.534 19.5915 162.314 19.3465 162.037 19.1785C161.722 18.9947 161.36 18.904 160.994 18.9169C160.643 18.9085 160.298 19.005 160.004 19.1938C159.725 19.3759 159.497 19.6239 159.339 19.9154C159.18 20.2042 159.099 20.5293 159.106 20.8585V20.8604Z" fill="#072253"/>
<path d="M168.133 27.4912V16.6895H171.675V18.2053C171.847 17.9324 172.054 17.6828 172.291 17.4627C172.577 17.2006 172.91 16.9946 173.274 16.8556C173.736 16.6821 174.228 16.5985 174.722 16.6093C175.359 16.6078 175.989 16.7378 176.573 16.9911C177.154 17.244 177.647 17.6602 177.992 18.1881C178.353 18.7367 178.533 19.4526 178.533 20.3359V27.4912H174.934V20.8093C174.948 20.6071 174.913 20.4045 174.832 20.2183C174.751 20.032 174.627 19.8675 174.47 19.7383C174.167 19.5002 173.791 19.3728 173.405 19.3775C173.133 19.3779 172.865 19.429 172.613 19.5283C172.364 19.6225 172.143 19.7774 171.97 19.9789C171.797 20.1893 171.708 20.4545 171.717 20.7253V27.4912H168.133Z" fill="#072253"/>
<path d="M180.596 27.491V23.7854H184.448V27.491H180.596Z" fill="#072253"/>
<path d="M186.901 27.4909V16.6892H190.443V18.2051C190.615 17.9322 190.822 17.6825 191.059 17.4624C191.345 17.2004 191.679 16.9944 192.042 16.8553C192.504 16.6838 192.996 16.6022 193.49 16.6148C194.127 16.6133 194.757 16.7433 195.341 16.9966C195.922 17.2495 196.415 17.6656 196.76 18.1936C197.124 18.7422 197.306 19.4581 197.307 20.3413V27.4909H193.702V20.8091C193.716 20.6068 193.681 20.4042 193.6 20.218C193.519 20.0318 193.395 19.8673 193.238 19.7381C192.935 19.4999 192.559 19.3725 192.173 19.3772C191.902 19.3776 191.633 19.4288 191.381 19.5281C191.132 19.6217 190.911 19.7768 190.74 19.9786C190.566 20.1885 190.476 20.4539 190.486 20.7251V27.4909H186.901Z" fill="#072253"/>
<path d="M203.36 27.7048C202.453 27.7048 201.741 27.6036 201.224 27.4013C200.779 27.2507 200.386 26.9772 200.092 26.6128C199.854 26.2944 199.7 25.9224 199.643 25.5304C199.584 25.1398 199.553 24.7455 199.553 24.3505V11.9644H203.066V23.8905C203.058 24.1904 203.138 24.4861 203.297 24.7419C203.451 24.9825 203.786 25.1333 204.298 25.1963L204.772 25.2287V27.4127C204.549 27.4891 204.316 27.5578 204.077 27.617C203.842 27.6753 203.602 27.7048 203.36 27.7048Z" fill="#072253"/>
<path fill-rule="evenodd" clip-rule="evenodd" d="M14.1345 33.9911C14.4773 33.9911 14.8124 34.0918 15.0975 34.2806C15.3825 34.4694 15.6047 34.7378 15.7359 35.0517C15.8671 35.3657 15.9014 35.7112 15.8345 36.0445C15.7676 36.3778 15.6026 36.6839 15.3601 36.9242C15.1177 37.1645 14.8089 37.3281 14.4727 37.3944C14.1364 37.4607 13.7879 37.4267 13.4712 37.2966C13.1545 37.1666 12.8837 36.9464 12.6933 36.6638C12.5028 36.3813 12.4012 36.0491 12.4012 35.7093C12.4012 35.2536 12.5838 34.8165 12.9088 34.4943C13.2339 34.1721 13.6748 33.9911 14.1345 33.9911ZM19.0687 33.9911C19.4115 33.9911 19.7467 34.0918 20.0317 34.2806C20.3168 34.4694 20.5389 34.7378 20.6701 35.0517C20.8013 35.3657 20.8356 35.7112 20.7687 36.0445C20.7019 36.3778 20.5368 36.6839 20.2944 36.9242C20.052 37.1645 19.7431 37.3281 19.4069 37.3944C19.0706 37.4607 18.7221 37.4267 18.4054 37.2966C18.0887 37.1666 17.818 36.9464 17.6275 36.6638C17.437 36.3813 17.3354 36.0491 17.3354 35.7093C17.3354 35.2536 17.518 34.8165 17.8431 34.4943C18.1681 34.1721 18.609 33.9911 19.0687 33.9911ZM14.1345 29.1C14.4773 29.1 14.8124 29.2008 15.0975 29.3895C15.3825 29.5783 15.6047 29.8467 15.7359 30.1606C15.8671 30.4746 15.9014 30.8201 15.8345 31.1534C15.7676 31.4867 15.6026 31.7928 15.3601 32.0331C15.1177 32.2734 14.8089 32.437 14.4727 32.5033C14.1364 32.5696 13.7879 32.5356 13.4712 32.4056C13.1545 32.2755 12.8837 32.0553 12.6933 31.7727C12.5028 31.4902 12.4012 31.158 12.4012 30.8182C12.4012 30.3625 12.5838 29.9254 12.9088 29.6032C13.2339 29.281 13.6748 29.1 14.1345 29.1ZM9.20027 29.1C9.54309 29.1 9.87821 29.2008 10.1633 29.3895C10.4483 29.5783 10.6705 29.8467 10.8017 30.1606C10.9329 30.4746 10.9672 30.8201 10.9003 31.1534C10.8334 31.4867 10.6683 31.7928 10.4259 32.0331C10.1835 32.2734 9.87466 32.437 9.53843 32.5033C9.20219 32.5696 8.85368 32.5356 8.53695 32.4056C8.22023 32.2755 7.94952 32.0553 7.75906 31.7727C7.5686 31.4902 7.46694 31.158 7.46694 30.8182C7.46694 30.3625 7.64956 29.9254 7.97462 29.6032C8.29968 29.281 8.74056 29.1 9.20027 29.1ZM19.0687 29.1C19.4115 29.1 19.7467 29.2008 20.0317 29.3895C20.3168 29.5783 20.5389 29.8467 20.6701 30.1606C20.8013 30.4746 20.8356 30.8201 20.7687 31.1534C20.7019 31.4867 20.5368 31.7928 20.2944 32.0331C20.052 32.2734 19.7431 32.437 19.4069 32.5033C19.0706 32.5696 18.7221 32.5356 18.4054 32.4056C18.0887 32.2755 17.818 32.0553 17.6275 31.7727C17.437 31.4902 17.3354 31.158 17.3354 30.8182C17.3354 30.3625 17.518 29.9254 17.8431 29.6032C18.1681 29.281 18.609 29.1 19.0687 29.1ZM9.20027 24.2089C9.54309 24.2089 9.87821 24.3097 10.1633 24.4985C10.4483 24.6873 10.6705 24.9556 10.8017 25.2696C10.9329 25.5835 10.9672 25.929 10.9003 26.2623C10.8334 26.5956 10.6683 26.9017 10.4259 27.142C10.1835 27.3823 9.87466 27.5459 9.53843 27.6122C9.20219 27.6785 8.85368 27.6445 8.53695 27.5145C8.22023 27.3844 7.94952 27.1642 7.75906 26.8816C7.5686 26.5991 7.46694 26.2669 7.46694 25.9271C7.46694 25.4714 7.64956 25.0344 7.97462 24.7121C8.29968 24.3899 8.74056 24.2089 9.20027 24.2089ZM4.26605 24.2089C4.60887 24.2089 4.94399 24.3097 5.22904 24.4985C5.51408 24.6873 5.73625 24.9556 5.86744 25.2696C5.99863 25.5835 6.03296 25.929 5.96608 26.2623C5.8992 26.5956 5.73411 26.9017 5.4917 27.142C5.24929 27.3823 4.94044 27.5459 4.60421 27.6122C4.26797 27.6785 3.91946 27.6445 3.60273 27.5145C3.28601 27.3844 3.0153 27.1642 2.82483 26.8816C2.63437 26.5991 2.53271 26.2669 2.53271 25.9271C2.53271 25.4714 2.71533 25.0344 3.0404 24.7121C3.36546 24.3899 3.80634 24.2089 4.26605 24.2089ZM9.20027 19.3178C9.54309 19.3178 9.87821 19.4186 10.1633 19.6074C10.4483 19.7962 10.6705 20.0645 10.8017 20.3785C10.9329 20.6924 10.9672 21.0379 10.9003 21.3712C10.8334 21.7045 10.6683 22.0106 10.4259 22.2509C10.1835 22.4912 9.87466 22.6549 9.53843 22.7212C9.20219 22.7874 8.85368 22.7534 8.53695 22.6234C8.22023 22.4933 7.94952 22.2731 7.75906 21.9906C7.5686 21.708 7.46694 21.3758 7.46694 21.036C7.46694 20.5803 7.64956 20.1433 7.97462 19.821C8.29968 19.4988 8.74056 19.3178 9.20027 19.3178ZM4.26605 19.3178C4.60887 19.3178 4.94399 19.4186 5.22904 19.6074C5.51408 19.7962 5.73625 20.0645 5.86744 20.3785C5.99863 20.6924 6.03296 21.0379 5.96608 21.3712C5.8992 21.7045 5.73411 22.0106 5.4917 22.2509C5.24929 22.4912 4.94044 22.6549 4.60421 22.7212C4.26797 22.7874 3.91946 22.7534 3.60273 22.6234C3.28601 22.4933 3.0153 22.2731 2.82483 21.9906C2.63437 21.708 2.53271 21.3758 2.53271 21.036C2.53271 20.5803 2.71533 20.1433 3.0404 19.821C3.36546 19.4988 3.80634 19.3178 4.26605 19.3178ZM9.20027 14.4267C9.54309 14.4267 9.87821 14.5275 10.1633 14.7163C10.4483 14.9051 10.6705 15.1734 10.8017 15.4874C10.9329 15.8013 10.9672 16.1468 10.9003 16.4801C10.8334 16.8134 10.6683 17.1195 10.4259 17.3598C10.1835 17.6001 9.87466 17.7638 9.53843 17.8301C9.20219 17.8964 8.85368 17.8623 8.53695 17.7323C8.22023 17.6022 7.94952 17.382 7.75906 17.0995C7.5686 16.8169 7.46694 16.4847 7.46694 16.1449C7.46694 15.6892 7.64956 15.2522 7.97462 14.93C8.29968 14.6077 8.74056 14.4267 9.20027 14.4267ZM4.26605 14.4267C4.60887 14.4267 4.94399 14.5275 5.22904 14.7163C5.51408 14.9051 5.73625 15.1734 5.86744 15.4874C5.99863 15.8013 6.03296 16.1468 5.96608 16.4801C5.8992 16.8134 5.73411 17.1195 5.4917 17.3598C5.24929 17.6001 4.94044 17.7638 4.60421 17.8301C4.26797 17.8964 3.91946 17.8623 3.60273 17.7323C3.28601 17.6022 3.0153 17.382 2.82483 17.0995C2.63437 16.8169 2.53271 16.4847 2.53271 16.1449C2.53271 15.6892 2.71533 15.2522 3.0404 14.93C3.36546 14.6077 3.80634 14.4267 4.26605 14.4267ZM14.1345 9.54517C14.4773 9.54517 14.8124 9.64594 15.0975 9.83473C15.3825 10.0235 15.6047 10.2919 15.7359 10.6058C15.8671 10.9198 15.9014 11.2653 15.8345 11.5985C15.7676 11.9318 15.6026 12.238 15.3601 12.4783C15.1177 12.7186 14.8089 12.8822 14.4727 12.9485C14.1364 13.0148 13.7879 12.9808 13.4712 12.8507C13.1545 12.7207 12.8837 12.5005 12.6933 12.2179C12.5028 11.9354 12.4012 11.6032 12.4012 11.2633C12.4012 10.8077 12.5838 10.3706 12.9088 10.0484C13.2339 9.72619 13.6748 9.54517 14.1345 9.54517ZM9.20027 9.54517C9.54309 9.54517 9.87821 9.64594 10.1633 9.83473C10.4483 10.0235 10.6705 10.2919 10.8017 10.6058C10.9329 10.9198 10.9672 11.2653 10.9003 11.5985C10.8334 11.9318 10.6683 12.238 10.4259 12.4783C10.1835 12.7186 9.87466 12.8822 9.53843 12.9485C9.20219 13.0148 8.85368 12.9808 8.53695 12.8507C8.22023 12.7207 7.94952 12.5005 7.75906 12.2179C7.5686 11.9354 7.46694 11.6032 7.46694 11.2633C7.46694 10.8077 7.64956 10.3706 7.97462 10.0484C8.29968 9.72619 8.74056 9.54517 9.20027 9.54517ZM19.0668 9.54517C19.4096 9.54517 19.7447 9.64594 20.0298 9.83473C20.3148 10.0235 20.537 10.2919 20.6682 10.6058C20.7994 10.9198 20.8337 11.2653 20.7668 11.5985C20.6999 11.9318 20.5349 12.238 20.2924 12.4783C20.05 12.7186 19.7412 12.8822 19.4049 12.9485C19.0687 13.0148 18.7202 12.9808 18.4035 12.8507C18.0867 12.7207 17.816 12.5005 17.6256 12.2179C17.4351 11.9354 17.3335 11.6032 17.3335 11.2633C17.3335 10.8077 17.5161 10.3706 17.8411 10.0484C18.1662 9.72619 18.6071 9.54517 19.0668 9.54517ZM14.1345 4.64453C14.4773 4.64453 14.8124 4.7453 15.0975 4.9341C15.3825 5.12289 15.6047 5.39124 15.7359 5.70519C15.8671 6.01915 15.9014 6.36462 15.8345 6.69791C15.7676 7.03121 15.6026 7.33736 15.3601 7.57765C15.1177 7.81794 14.8089 7.98158 14.4727 8.04788C14.1364 8.11418 13.7879 8.08015 13.4712 7.95011C13.1545 7.82006 12.8837 7.59984 12.6933 7.31728C12.5028 7.03473 12.4012 6.70254 12.4012 6.36271C12.4012 5.90702 12.5838 5.47 12.9088 5.14778C13.2339 4.82555 13.6748 4.64453 14.1345 4.64453ZM19.0687 4.64453C19.4115 4.64453 19.7467 4.7453 20.0317 4.9341C20.3168 5.12289 20.5389 5.39124 20.6701 5.70519C20.8013 6.01915 20.8356 6.36462 20.7687 6.69791C20.7019 7.03121 20.5368 7.33736 20.2944 7.57765C20.052 7.81794 19.7431 7.98158 19.4069 8.04788C19.0706 8.11418 18.7221 8.08015 18.4054 7.95011C18.0887 7.82006 17.818 7.59984 17.6275 7.31728C17.437 7.03473 17.3354 6.70254 17.3354 6.36271C17.3354 5.90702 17.518 5.47 17.8431 5.14778C18.1681 4.82555 18.609 4.64453 19.0687 4.64453Z" fill="#3788DF"/>
<path fill-rule="evenodd" clip-rule="evenodd" d="M22.2675 4.26514C30.6992 5.01159 37.3629 12.1955 37.3629 21.0002C37.3629 29.805 30.6915 36.9889 22.2598 37.7353V30.0016C26.4564 29.2838 29.6187 25.498 29.6187 21.0002C29.6187 16.5024 26.4564 12.7167 22.2598 11.9989V4.26514H22.2675Z" fill="#072253"/>
</svg>
