<svg width="155" height="155" viewBox="0 0 155 155" fill="none" xmlns="http://www.w3.org/2000/svg">
<circle cx="0.911765" cy="0.911765" r="0.911765" fill="#F07C00"/>
<circle cx="13.6765" cy="0.911765" r="0.911765" fill="#F07C00"/>
<circle cx="26.4412" cy="0.911765" r="0.911765" fill="#F07C00"/>
<circle cx="39.2058" cy="0.911765" r="0.911765" fill="#F07C00"/>
<circle cx="51.9706" cy="0.911765" r="0.911765" fill="#F07C00"/>
<circle cx="64.7353" cy="0.911765" r="0.911765" fill="#F07C00"/>
<circle cx="77.5001" cy="0.911765" r="0.911765" fill="#F07C00"/>
<circle cx="90.2648" cy="0.911765" r="0.911765" fill="#F07C00"/>
<circle cx="103.029" cy="0.911765" r="0.911765" fill="#F07C00"/>
<circle cx="115.794" cy="0.911765" r="0.911765" fill="#F07C00"/>
<circle cx="128.559" cy="0.911765" r="0.911765" fill="#F07C00"/>
<circle cx="141.323" cy="0.911765" r="0.911765" fill="#F07C00"/>
<circle cx="154.088" cy="0.911765" r="0.911765" fill="#F07C00"/>
<circle cx="0.911765" cy="13.6754" r="0.911765" fill="#F07C00"/>
<circle cx="13.6765" cy="13.6754" r="0.911765" fill="#F07C00"/>
<circle cx="26.4412" cy="13.6754" r="0.911765" fill="#F07C00"/>
<circle cx="39.2058" cy="13.6754" r="0.911765" fill="#F07C00"/>
<circle cx="51.9706" cy="13.6754" r="0.911765" fill="#F07C00"/>
<circle cx="64.7353" cy="13.6754" r="0.911765" fill="#F07C00"/>
<circle cx="77.5001" cy="13.6754" r="0.911765" fill="#F07C00"/>
<circle cx="90.2648" cy="13.6754" r="0.911765" fill="#F07C00"/>
<circle cx="103.029" cy="13.6754" r="0.911765" fill="#F07C00"/>
<circle cx="115.794" cy="13.6754" r="0.911765" fill="#F07C00"/>
<circle cx="128.559" cy="13.6754" r="0.911765" fill="#F07C00"/>
<circle cx="141.323" cy="13.6754" r="0.911765" fill="#F07C00"/>
<circle cx="154.088" cy="13.6754" r="0.911765" fill="#F07C00"/>
<circle cx="0.911765" cy="26.4411" r="0.911765" fill="#F07C00"/>
<circle cx="13.6765" cy="26.4411" r="0.911765" fill="#F07C00"/>
<circle cx="26.4412" cy="26.4411" r="0.911765" fill="#F07C00"/>
<circle cx="39.2058" cy="26.4411" r="0.911765" fill="#F07C00"/>
<circle cx="51.9706" cy="26.4411" r="0.911765" fill="#F07C00"/>
<circle cx="64.7353" cy="26.4411" r="0.911765" fill="#F07C00"/>
<circle cx="77.5001" cy="26.4411" r="0.911765" fill="#F07C00"/>
<circle cx="90.2648" cy="26.4411" r="0.911765" fill="#F07C00"/>
<circle cx="103.029" cy="26.4411" r="0.911765" fill="#F07C00"/>
<circle cx="115.794" cy="26.4411" r="0.911765" fill="#F07C00"/>
<circle cx="128.559" cy="26.4411" r="0.911765" fill="#F07C00"/>
<circle cx="141.323" cy="26.4411" r="0.911765" fill="#F07C00"/>
<circle cx="154.088" cy="26.4411" r="0.911765" fill="#F07C00"/>
<circle cx="0.911765" cy="39.2067" r="0.911765" fill="#F07C00"/>
<circle cx="13.6765" cy="39.2067" r="0.911765" fill="#F07C00"/>
<circle cx="26.4412" cy="39.2067" r="0.911765" fill="#F07C00"/>
<circle cx="39.2058" cy="39.2067" r="0.911765" fill="#F07C00"/>
<circle cx="51.9706" cy="39.2067" r="0.911765" fill="#F07C00"/>
<circle cx="64.7353" cy="39.2067" r="0.911765" fill="#F07C00"/>
<circle cx="77.5001" cy="39.2067" r="0.911765" fill="#F07C00"/>
<circle cx="90.2648" cy="39.2067" r="0.911765" fill="#F07C00"/>
<circle cx="103.029" cy="39.2067" r="0.911765" fill="#F07C00"/>
<circle cx="115.794" cy="39.2067" r="0.911765" fill="#F07C00"/>
<circle cx="128.559" cy="39.2067" r="0.911765" fill="#F07C00"/>
<circle cx="141.323" cy="39.2067" r="0.911765" fill="#F07C00"/>
<circle cx="154.088" cy="39.2067" r="0.911765" fill="#F07C00"/>
<circle cx="0.911765" cy="51.9704" r="0.911765" fill="#F07C00"/>
<circle cx="13.6765" cy="51.9704" r="0.911765" fill="#F07C00"/>
<circle cx="26.4412" cy="51.9704" r="0.911765" fill="#F07C00"/>
<circle cx="39.2058" cy="51.9704" r="0.911765" fill="#F07C00"/>
<circle cx="51.9706" cy="51.9704" r="0.911765" fill="#F07C00"/>
<circle cx="64.7353" cy="51.9704" r="0.911765" fill="#F07C00"/>
<circle cx="77.5001" cy="51.9704" r="0.911765" fill="#F07C00"/>
<circle cx="90.2648" cy="51.9704" r="0.911765" fill="#F07C00"/>
<circle cx="103.029" cy="51.9704" r="0.911765" fill="#F07C00"/>
<circle cx="115.794" cy="51.9704" r="0.911765" fill="#F07C00"/>
<circle cx="128.559" cy="51.9704" r="0.911765" fill="#F07C00"/>
<circle cx="141.323" cy="51.9704" r="0.911765" fill="#F07C00"/>
<circle cx="154.088" cy="51.9704" r="0.911765" fill="#F07C00"/>
<circle cx="0.911765" cy="64.736" r="0.911765" fill="#F07C00"/>
<circle cx="13.6765" cy="64.736" r="0.911765" fill="#F07C00"/>
<circle cx="26.4412" cy="64.736" r="0.911765" fill="#F07C00"/>
<circle cx="39.2058" cy="64.736" r="0.911765" fill="#F07C00"/>
<circle cx="51.9706" cy="64.736" r="0.911765" fill="#F07C00"/>
<circle cx="64.7353" cy="64.736" r="0.911765" fill="#F07C00"/>
<circle cx="77.5001" cy="64.736" r="0.911765" fill="#F07C00"/>
<circle cx="90.2648" cy="64.736" r="0.911765" fill="#F07C00"/>
<circle cx="103.029" cy="64.736" r="0.911765" fill="#F07C00"/>
<circle cx="115.794" cy="64.736" r="0.911765" fill="#F07C00"/>
<circle cx="128.559" cy="64.736" r="0.911765" fill="#F07C00"/>
<circle cx="141.323" cy="64.736" r="0.911765" fill="#F07C00"/>
<circle cx="154.088" cy="64.736" r="0.911765" fill="#F07C00"/>
<circle cx="0.911765" cy="77.4997" r="0.911765" fill="#F07C00"/>
<circle cx="13.6765" cy="77.4997" r="0.911765" fill="#F07C00"/>
<circle cx="26.4412" cy="77.4997" r="0.911765" fill="#F07C00"/>
<circle cx="39.2058" cy="77.4997" r="0.911765" fill="#F07C00"/>
<circle cx="51.9706" cy="77.4997" r="0.911765" fill="#F07C00"/>
<circle cx="64.7353" cy="77.4997" r="0.911765" fill="#F07C00"/>
<circle cx="77.5001" cy="77.4997" r="0.911765" fill="#F07C00"/>
<circle cx="90.2648" cy="77.4997" r="0.911765" fill="#F07C00"/>
<circle cx="103.029" cy="77.4997" r="0.911765" fill="#F07C00"/>
<circle cx="115.794" cy="77.4997" r="0.911765" fill="#F07C00"/>
<circle cx="128.559" cy="77.4997" r="0.911765" fill="#F07C00"/>
<circle cx="141.323" cy="77.4997" r="0.911765" fill="#F07C00"/>
<circle cx="154.088" cy="77.4997" r="0.911765" fill="#F07C00"/>
<circle cx="0.911765" cy="90.2653" r="0.911765" fill="#F07C00"/>
<circle cx="13.6765" cy="90.2653" r="0.911765" fill="#F07C00"/>
<circle cx="26.4412" cy="90.2653" r="0.911765" fill="#F07C00"/>
<circle cx="39.2058" cy="90.2653" r="0.911765" fill="#F07C00"/>
<circle cx="51.9706" cy="90.2653" r="0.911765" fill="#F07C00"/>
<circle cx="64.7353" cy="90.2653" r="0.911765" fill="#F07C00"/>
<circle cx="77.5001" cy="90.2653" r="0.911765" fill="#F07C00"/>
<circle cx="90.2648" cy="90.2653" r="0.911765" fill="#F07C00"/>
<circle cx="103.029" cy="90.2653" r="0.911765" fill="#F07C00"/>
<circle cx="115.794" cy="90.2653" r="0.911765" fill="#F07C00"/>
<circle cx="128.559" cy="90.2653" r="0.911765" fill="#F07C00"/>
<circle cx="141.323" cy="90.2653" r="0.911765" fill="#F07C00"/>
<circle cx="154.088" cy="90.2653" r="0.911765" fill="#F07C00"/>
<circle cx="0.911765" cy="103.029" r="0.911765" fill="#F07C00"/>
<circle cx="13.6765" cy="103.029" r="0.911765" fill="#F07C00"/>
<circle cx="26.4412" cy="103.029" r="0.911765" fill="#F07C00"/>
<circle cx="39.2058" cy="103.029" r="0.911765" fill="#F07C00"/>
<circle cx="51.9706" cy="103.029" r="0.911765" fill="#F07C00"/>
<circle cx="64.7353" cy="103.029" r="0.911765" fill="#F07C00"/>
<circle cx="77.5001" cy="103.029" r="0.911765" fill="#F07C00"/>
<circle cx="90.2648" cy="103.029" r="0.911765" fill="#F07C00"/>
<circle cx="103.029" cy="103.029" r="0.911765" fill="#F07C00"/>
<circle cx="115.794" cy="103.029" r="0.911765" fill="#F07C00"/>
<circle cx="128.559" cy="103.029" r="0.911765" fill="#F07C00"/>
<circle cx="141.323" cy="103.029" r="0.911765" fill="#F07C00"/>
<circle cx="154.088" cy="103.029" r="0.911765" fill="#F07C00"/>
<circle cx="0.911765" cy="115.795" r="0.911765" fill="#F07C00"/>
<circle cx="13.6765" cy="115.795" r="0.911765" fill="#F07C00"/>
<circle cx="26.4412" cy="115.795" r="0.911765" fill="#F07C00"/>
<circle cx="39.2058" cy="115.795" r="0.911765" fill="#F07C00"/>
<circle cx="51.9706" cy="115.795" r="0.911765" fill="#F07C00"/>
<circle cx="64.7353" cy="115.795" r="0.911765" fill="#F07C00"/>
<circle cx="77.5001" cy="115.795" r="0.911765" fill="#F07C00"/>
<circle cx="90.2648" cy="115.795" r="0.911765" fill="#F07C00"/>
<circle cx="103.029" cy="115.795" r="0.911765" fill="#F07C00"/>
<circle cx="115.794" cy="115.795" r="0.911765" fill="#F07C00"/>
<circle cx="128.559" cy="115.795" r="0.911765" fill="#F07C00"/>
<circle cx="141.323" cy="115.795" r="0.911765" fill="#F07C00"/>
<circle cx="154.088" cy="115.795" r="0.911765" fill="#F07C00"/>
<circle cx="0.911765" cy="128.558" r="0.911765" fill="#F07C00"/>
<circle cx="13.6765" cy="128.558" r="0.911765" fill="#F07C00"/>
<circle cx="26.4412" cy="128.558" r="0.911765" fill="#F07C00"/>
<circle cx="39.2058" cy="128.558" r="0.911765" fill="#F07C00"/>
<circle cx="51.9706" cy="128.558" r="0.911765" fill="#F07C00"/>
<circle cx="64.7353" cy="128.558" r="0.911765" fill="#F07C00"/>
<circle cx="77.5001" cy="128.558" r="0.911765" fill="#F07C00"/>
<circle cx="90.2648" cy="128.558" r="0.911765" fill="#F07C00"/>
<circle cx="103.029" cy="128.558" r="0.911765" fill="#F07C00"/>
<circle cx="115.794" cy="128.558" r="0.911765" fill="#F07C00"/>
<circle cx="128.559" cy="128.558" r="0.911765" fill="#F07C00"/>
<circle cx="141.323" cy="128.558" r="0.911765" fill="#F07C00"/>
<circle cx="154.088" cy="128.558" r="0.911765" fill="#F07C00"/>
<circle cx="0.911765" cy="141.324" r="0.911765" fill="#F07C00"/>
<circle cx="13.6765" cy="141.324" r="0.911765" fill="#F07C00"/>
<circle cx="26.4412" cy="141.324" r="0.911765" fill="#F07C00"/>
<circle cx="39.2058" cy="141.324" r="0.911765" fill="#F07C00"/>
<circle cx="51.9706" cy="141.324" r="0.911765" fill="#F07C00"/>
<circle cx="64.7353" cy="141.324" r="0.911765" fill="#F07C00"/>
<circle cx="77.5001" cy="141.324" r="0.911765" fill="#F07C00"/>
<circle cx="90.2648" cy="141.324" r="0.911765" fill="#F07C00"/>
<circle cx="103.029" cy="141.324" r="0.911765" fill="#F07C00"/>
<circle cx="115.794" cy="141.324" r="0.911765" fill="#F07C00"/>
<circle cx="128.559" cy="141.324" r="0.911765" fill="#F07C00"/>
<circle cx="141.323" cy="141.324" r="0.911765" fill="#F07C00"/>
<circle cx="154.088" cy="141.324" r="0.911765" fill="#F07C00"/>
<circle cx="0.911765" cy="154.088" r="0.911765" fill="#F07C00"/>
<circle cx="13.6765" cy="154.088" r="0.911765" fill="#F07C00"/>
<circle cx="26.4412" cy="154.088" r="0.911765" fill="#F07C00"/>
<circle cx="39.2058" cy="154.088" r="0.911765" fill="#F07C00"/>
<circle cx="51.9706" cy="154.088" r="0.911765" fill="#F07C00"/>
<circle cx="64.7353" cy="154.088" r="0.911765" fill="#F07C00"/>
<circle cx="77.5001" cy="154.088" r="0.911765" fill="#F07C00"/>
<circle cx="90.2648" cy="154.088" r="0.911765" fill="#F07C00"/>
<circle cx="103.029" cy="154.088" r="0.911765" fill="#F07C00"/>
<circle cx="115.794" cy="154.088" r="0.911765" fill="#F07C00"/>
<circle cx="128.559" cy="154.088" r="0.911765" fill="#F07C00"/>
<circle cx="141.323" cy="154.088" r="0.911765" fill="#F07C00"/>
<circle cx="154.088" cy="154.088" r="0.911765" fill="#F07C00"/>
</svg>
