<svg width="340" height="340" viewBox="0 0 340 340" fill="none" xmlns="http://www.w3.org/2000/svg">
<circle cx="2" cy="2" r="2" fill="#F07C00"/>
<circle cx="30" cy="2" r="2" fill="#F07C00"/>
<circle cx="58" cy="2" r="2" fill="#F07C00"/>
<circle cx="86" cy="2" r="2" fill="#F07C00"/>
<circle cx="114" cy="2" r="2" fill="#F07C00"/>
<circle cx="142" cy="2" r="2" fill="#F07C00"/>
<circle cx="170" cy="2" r="2" fill="#F07C00"/>
<circle cx="198" cy="2" r="2" fill="#F07C00"/>
<circle cx="226" cy="2" r="2" fill="#F07C00"/>
<circle cx="254" cy="2" r="2" fill="#F07C00"/>
<circle cx="282" cy="2" r="2" fill="#F07C00"/>
<circle cx="310" cy="2" r="2" fill="#F07C00"/>
<circle cx="338" cy="2" r="2" fill="#F07C00"/>
<circle cx="2" cy="30" r="2" fill="#F07C00"/>
<circle cx="30" cy="30" r="2" fill="#F07C00"/>
<circle cx="58" cy="30" r="2" fill="#F07C00"/>
<circle cx="86" cy="30" r="2" fill="#F07C00"/>
<circle cx="114" cy="30" r="2" fill="#F07C00"/>
<circle cx="142" cy="30" r="2" fill="#F07C00"/>
<circle cx="170" cy="30" r="2" fill="#F07C00"/>
<circle cx="198" cy="30" r="2" fill="#F07C00"/>
<circle cx="226" cy="30" r="2" fill="#F07C00"/>
<circle cx="254" cy="30" r="2" fill="#F07C00"/>
<circle cx="282" cy="30" r="2" fill="#F07C00"/>
<circle cx="310" cy="30" r="2" fill="#F07C00"/>
<circle cx="338" cy="30" r="2" fill="#F07C00"/>
<circle cx="2" cy="58" r="2" fill="#F07C00"/>
<circle cx="30" cy="58" r="2" fill="#F07C00"/>
<circle cx="58" cy="58" r="2" fill="#F07C00"/>
<circle cx="86" cy="58" r="2" fill="#F07C00"/>
<circle cx="114" cy="58" r="2" fill="#F07C00"/>
<circle cx="142" cy="58" r="2" fill="#F07C00"/>
<circle cx="170" cy="58" r="2" fill="#F07C00"/>
<circle cx="198" cy="58" r="2" fill="#F07C00"/>
<circle cx="226" cy="58" r="2" fill="#F07C00"/>
<circle cx="254" cy="58" r="2" fill="#F07C00"/>
<circle cx="282" cy="58" r="2" fill="#F07C00"/>
<circle cx="310" cy="58" r="2" fill="#F07C00"/>
<circle cx="338" cy="58" r="2" fill="#F07C00"/>
<circle cx="2" cy="86" r="2" fill="#F07C00"/>
<circle cx="30" cy="86" r="2" fill="#F07C00"/>
<circle cx="58" cy="86" r="2" fill="#F07C00"/>
<circle cx="86" cy="86" r="2" fill="#F07C00"/>
<circle cx="114" cy="86" r="2" fill="#F07C00"/>
<circle cx="142" cy="86" r="2" fill="#F07C00"/>
<circle cx="170" cy="86" r="2" fill="#F07C00"/>
<circle cx="198" cy="86" r="2" fill="#F07C00"/>
<circle cx="226" cy="86" r="2" fill="#F07C00"/>
<circle cx="254" cy="86" r="2" fill="#F07C00"/>
<circle cx="282" cy="86" r="2" fill="#F07C00"/>
<circle cx="310" cy="86" r="2" fill="#F07C00"/>
<circle cx="338" cy="86" r="2" fill="#F07C00"/>
<circle cx="2" cy="114" r="2" fill="#F07C00"/>
<circle cx="30" cy="114" r="2" fill="#F07C00"/>
<circle cx="58" cy="114" r="2" fill="#F07C00"/>
<circle cx="86" cy="114" r="2" fill="#F07C00"/>
<circle cx="114" cy="114" r="2" fill="#F07C00"/>
<circle cx="142" cy="114" r="2" fill="#F07C00"/>
<circle cx="170" cy="114" r="2" fill="#F07C00"/>
<circle cx="198" cy="114" r="2" fill="#F07C00"/>
<circle cx="226" cy="114" r="2" fill="#F07C00"/>
<circle cx="254" cy="114" r="2" fill="#F07C00"/>
<circle cx="282" cy="114" r="2" fill="#F07C00"/>
<circle cx="310" cy="114" r="2" fill="#F07C00"/>
<circle cx="338" cy="114" r="2" fill="#F07C00"/>
<circle cx="2" cy="142" r="2" fill="#F07C00"/>
<circle cx="30" cy="142" r="2" fill="#F07C00"/>
<circle cx="58" cy="142" r="2" fill="#F07C00"/>
<circle cx="86" cy="142" r="2" fill="#F07C00"/>
<circle cx="114" cy="142" r="2" fill="#F07C00"/>
<circle cx="142" cy="142" r="2" fill="#F07C00"/>
<circle cx="170" cy="142" r="2" fill="#F07C00"/>
<circle cx="198" cy="142" r="2" fill="#F07C00"/>
<circle cx="226" cy="142" r="2" fill="#F07C00"/>
<circle cx="254" cy="142" r="2" fill="#F07C00"/>
<circle cx="282" cy="142" r="2" fill="#F07C00"/>
<circle cx="310" cy="142" r="2" fill="#F07C00"/>
<circle cx="338" cy="142" r="2" fill="#F07C00"/>
<circle cx="2" cy="170" r="2" fill="#F07C00"/>
<circle cx="30" cy="170" r="2" fill="#F07C00"/>
<circle cx="58" cy="170" r="2" fill="#F07C00"/>
<circle cx="86" cy="170" r="2" fill="#F07C00"/>
<circle cx="114" cy="170" r="2" fill="#F07C00"/>
<circle cx="142" cy="170" r="2" fill="#F07C00"/>
<circle cx="170" cy="170" r="2" fill="#F07C00"/>
<circle cx="198" cy="170" r="2" fill="#F07C00"/>
<circle cx="226" cy="170" r="2" fill="#F07C00"/>
<circle cx="254" cy="170" r="2" fill="#F07C00"/>
<circle cx="282" cy="170" r="2" fill="#F07C00"/>
<circle cx="310" cy="170" r="2" fill="#F07C00"/>
<circle cx="338" cy="170" r="2" fill="#F07C00"/>
<circle cx="2" cy="198" r="2" fill="#F07C00"/>
<circle cx="30" cy="198" r="2" fill="#F07C00"/>
<circle cx="58" cy="198" r="2" fill="#F07C00"/>
<circle cx="86" cy="198" r="2" fill="#F07C00"/>
<circle cx="114" cy="198" r="2" fill="#F07C00"/>
<circle cx="142" cy="198" r="2" fill="#F07C00"/>
<circle cx="170" cy="198" r="2" fill="#F07C00"/>
<circle cx="198" cy="198" r="2" fill="#F07C00"/>
<circle cx="226" cy="198" r="2" fill="#F07C00"/>
<circle cx="254" cy="198" r="2" fill="#F07C00"/>
<circle cx="282" cy="198" r="2" fill="#F07C00"/>
<circle cx="310" cy="198" r="2" fill="#F07C00"/>
<circle cx="338" cy="198" r="2" fill="#F07C00"/>
<circle cx="2" cy="226" r="2" fill="#F07C00"/>
<circle cx="30" cy="226" r="2" fill="#F07C00"/>
<circle cx="58" cy="226" r="2" fill="#F07C00"/>
<circle cx="86" cy="226" r="2" fill="#F07C00"/>
<circle cx="114" cy="226" r="2" fill="#F07C00"/>
<circle cx="142" cy="226" r="2" fill="#F07C00"/>
<circle cx="170" cy="226" r="2" fill="#F07C00"/>
<circle cx="198" cy="226" r="2" fill="#F07C00"/>
<circle cx="226" cy="226" r="2" fill="#F07C00"/>
<circle cx="254" cy="226" r="2" fill="#F07C00"/>
<circle cx="282" cy="226" r="2" fill="#F07C00"/>
<circle cx="310" cy="226" r="2" fill="#F07C00"/>
<circle cx="338" cy="226" r="2" fill="#F07C00"/>
<circle cx="2" cy="254" r="2" fill="#F07C00"/>
<circle cx="30" cy="254" r="2" fill="#F07C00"/>
<circle cx="58" cy="254" r="2" fill="#F07C00"/>
<circle cx="86" cy="254" r="2" fill="#F07C00"/>
<circle cx="114" cy="254" r="2" fill="#F07C00"/>
<circle cx="142" cy="254" r="2" fill="#F07C00"/>
<circle cx="170" cy="254" r="2" fill="#F07C00"/>
<circle cx="198" cy="254" r="2" fill="#F07C00"/>
<circle cx="226" cy="254" r="2" fill="#F07C00"/>
<circle cx="254" cy="254" r="2" fill="#F07C00"/>
<circle cx="282" cy="254" r="2" fill="#F07C00"/>
<circle cx="310" cy="254" r="2" fill="#F07C00"/>
<circle cx="338" cy="254" r="2" fill="#F07C00"/>
<circle cx="2" cy="282" r="2" fill="#F07C00"/>
<circle cx="30" cy="282" r="2" fill="#F07C00"/>
<circle cx="58" cy="282" r="2" fill="#F07C00"/>
<circle cx="86" cy="282" r="2" fill="#F07C00"/>
<circle cx="114" cy="282" r="2" fill="#F07C00"/>
<circle cx="142" cy="282" r="2" fill="#F07C00"/>
<circle cx="170" cy="282" r="2" fill="#F07C00"/>
<circle cx="198" cy="282" r="2" fill="#F07C00"/>
<circle cx="226" cy="282" r="2" fill="#F07C00"/>
<circle cx="254" cy="282" r="2" fill="#F07C00"/>
<circle cx="282" cy="282" r="2" fill="#F07C00"/>
<circle cx="310" cy="282" r="2" fill="#F07C00"/>
<circle cx="338" cy="282" r="2" fill="#F07C00"/>
<circle cx="2" cy="310" r="2" fill="#F07C00"/>
<circle cx="30" cy="310" r="2" fill="#F07C00"/>
<circle cx="58" cy="310" r="2" fill="#F07C00"/>
<circle cx="86" cy="310" r="2" fill="#F07C00"/>
<circle cx="114" cy="310" r="2" fill="#F07C00"/>
<circle cx="142" cy="310" r="2" fill="#F07C00"/>
<circle cx="170" cy="310" r="2" fill="#F07C00"/>
<circle cx="198" cy="310" r="2" fill="#F07C00"/>
<circle cx="226" cy="310" r="2" fill="#F07C00"/>
<circle cx="254" cy="310" r="2" fill="#F07C00"/>
<circle cx="282" cy="310" r="2" fill="#F07C00"/>
<circle cx="310" cy="310" r="2" fill="#F07C00"/>
<circle cx="338" cy="310" r="2" fill="#F07C00"/>
<circle cx="2" cy="338" r="2" fill="#F07C00"/>
<circle cx="30" cy="338" r="2" fill="#F07C00"/>
<circle cx="58" cy="338" r="2" fill="#F07C00"/>
<circle cx="86" cy="338" r="2" fill="#F07C00"/>
<circle cx="114" cy="338" r="2" fill="#F07C00"/>
<circle cx="142" cy="338" r="2" fill="#F07C00"/>
<circle cx="170" cy="338" r="2" fill="#F07C00"/>
<circle cx="198" cy="338" r="2" fill="#F07C00"/>
<circle cx="226" cy="338" r="2" fill="#F07C00"/>
<circle cx="254" cy="338" r="2" fill="#F07C00"/>
<circle cx="282" cy="338" r="2" fill="#F07C00"/>
<circle cx="310" cy="338" r="2" fill="#F07C00"/>
<circle cx="338" cy="338" r="2" fill="#F07C00"/>
</svg>
