<svg width="246" height="48" viewBox="0 0 246 48" fill="none" xmlns="http://www.w3.org/2000/svg">
<path d="M0 0H230C238.837 0 246 7.16344 246 16V48H16C7.16344 48 0 40.8366 0 32V0Z" fill="#F07C00"/>
<path d="M21.64 30.16C21.0693 30.16 20.5093 30.088 19.96 29.944C19.4107 29.8 18.9067 29.584 18.448 29.296C17.9947 29.008 17.6213 28.648 17.328 28.216C17.0347 27.784 16.8587 27.2773 16.8 26.696H19.192C19.3093 27.2187 19.5867 27.6213 20.024 27.904C20.4667 28.1867 21.0027 28.328 21.632 28.328C22.2667 28.328 22.8133 28.208 23.272 27.968C23.736 27.728 23.968 27.3627 23.968 26.872C23.968 26.4347 23.7813 26.1093 23.408 25.896C23.0347 25.6827 22.568 25.52 22.008 25.408L20.008 25C19.1333 24.8347 18.44 24.488 17.928 23.96C17.416 23.432 17.152 22.7227 17.136 21.832C17.1307 21.1067 17.3227 20.48 17.712 19.952C18.1067 19.4187 18.64 19.008 19.312 18.72C19.9893 18.432 20.7467 18.288 21.584 18.288C22.5813 18.288 23.4187 18.4453 24.096 18.76C24.7787 19.0693 25.296 19.4907 25.648 20.024C26.0053 20.552 26.1893 21.1413 26.2 21.792H23.856C23.792 21.184 23.5547 20.7573 23.144 20.512C22.7333 20.2667 22.2267 20.144 21.624 20.144C21 20.144 20.504 20.2773 20.136 20.544C19.768 20.8053 19.584 21.144 19.584 21.56C19.584 21.896 19.6933 22.168 19.912 22.376C20.136 22.584 20.5573 22.7547 21.176 22.888L23.16 23.296C23.864 23.4347 24.4267 23.64 24.848 23.912C25.2693 24.184 25.584 24.4907 25.792 24.832C26.0053 25.1733 26.144 25.5227 26.208 25.88C26.2773 26.232 26.312 26.5573 26.312 26.856C26.312 27.48 26.1173 28.0427 25.728 28.544C25.3387 29.04 24.792 29.4347 24.088 29.728C23.3893 30.016 22.5733 30.16 21.64 30.16ZM32.8514 23.352H31.0114L31.0274 27.76C31.0274 28.064 31.086 28.256 31.2034 28.336C31.3207 28.4107 31.5074 28.448 31.7634 28.448H32.8754V29.888C32.7634 29.936 32.5927 29.9813 32.3634 30.024C32.1394 30.0667 31.8274 30.088 31.4274 30.088C30.6967 30.088 30.1314 29.9947 29.7314 29.808C29.3367 29.6213 29.062 29.36 28.9074 29.024C28.758 28.688 28.6834 28.2987 28.6834 27.856V23.352H27.3394V21.728H28.7554L29.3474 19.232H31.0114V21.72H32.8514V23.352ZM36.9404 30.16C36.151 30.16 35.487 29.9413 34.9484 29.504C34.415 29.0667 34.1484 28.4427 34.1484 27.632C34.1484 26.7253 34.487 26.0373 35.1644 25.568C35.8417 25.0933 36.911 24.848 38.3724 24.832L39.4124 24.816V24.32C39.4124 23.9413 39.3004 23.6507 39.0764 23.448C38.8524 23.24 38.5084 23.1387 38.0444 23.144C37.703 23.1493 37.3804 23.2293 37.0764 23.384C36.7724 23.5387 36.5617 23.808 36.4444 24.192H34.5004C34.5484 23.296 34.911 22.6347 35.5884 22.208C36.2657 21.7813 37.1217 21.568 38.1564 21.568C39.4204 21.568 40.319 21.8027 40.8524 22.272C41.3857 22.736 41.6524 23.3733 41.6524 24.184V30H39.7004L39.5084 28.576C39.2257 29.1733 38.871 29.5867 38.4444 29.816C38.023 30.0453 37.5217 30.16 36.9404 30.16ZM37.7324 28.624C38.0097 28.624 38.2764 28.56 38.5324 28.432C38.7884 28.2987 38.9964 28.128 39.1564 27.92C39.3217 27.7067 39.407 27.48 39.4124 27.24V26.016L38.5724 26.032C38.183 26.0373 37.8204 26.0827 37.4844 26.168C37.1484 26.2533 36.8764 26.3973 36.6684 26.6C36.4657 26.7973 36.3644 27.064 36.3644 27.4C36.3644 27.784 36.495 28.0853 36.7564 28.304C37.023 28.5173 37.3484 28.624 37.7324 28.624ZM43.5469 30V21.728H45.7949V23.688C45.9922 23.0533 46.3149 22.5413 46.7629 22.152C47.2109 21.7627 47.7629 21.568 48.4189 21.568C48.5949 21.568 48.7149 21.584 48.7789 21.616V23.84C48.7309 23.824 48.6722 23.8133 48.6029 23.808C48.5389 23.7973 48.4802 23.7893 48.4269 23.784C47.5042 23.704 46.8482 23.8267 46.4589 24.152C46.0749 24.4773 45.8829 24.9173 45.8829 25.472V30H43.5469ZM55.0545 23.352H53.2145L53.2305 27.76C53.2305 28.064 53.2892 28.256 53.4065 28.336C53.5238 28.4107 53.7105 28.448 53.9665 28.448H55.0785V29.888C54.9665 29.936 54.7958 29.9813 54.5665 30.024C54.3425 30.0667 54.0305 30.088 53.6305 30.088C52.8998 30.088 52.3345 29.9947 51.9345 29.808C51.5398 29.6213 51.2652 29.36 51.1105 29.024C50.9612 28.688 50.8865 28.2987 50.8865 27.856V23.352H49.5425V21.728H50.9585L51.5505 19.232H53.2145V21.72H55.0545V23.352ZM63.3624 30.16C62.253 30.16 61.389 29.7787 60.7704 29.016C60.1517 28.248 59.8424 27.1813 59.8424 25.816C59.8424 24.52 60.1224 23.488 60.6824 22.72C61.2477 21.952 62.0637 21.568 63.1304 21.568C63.7224 21.568 64.2344 21.6933 64.6664 21.944C65.1037 22.1947 65.4237 22.496 65.6264 22.848V18.112H67.9704V30H66.2744L66.0104 28.304C65.909 28.608 65.7544 28.9013 65.5464 29.184C65.3437 29.4667 65.0637 29.7013 64.7064 29.888C64.3544 30.0693 63.9064 30.16 63.3624 30.16ZM63.8744 28.48C64.4664 28.48 64.9064 28.2747 65.1944 27.864C65.4824 27.4533 65.6264 26.76 65.6264 25.784C65.6157 24.104 65.037 23.264 63.8904 23.264C63.3837 23.264 62.9624 23.4587 62.6264 23.848C62.2904 24.232 62.1224 24.8773 62.1224 25.784C62.1224 26.7067 62.2797 27.3867 62.5944 27.824C62.909 28.2613 63.3357 28.48 63.8744 28.48ZM71.9448 26.4C71.9394 27.0347 72.0914 27.5387 72.4008 27.912C72.7154 28.2853 73.1528 28.472 73.7128 28.472C74.1128 28.472 74.4621 28.3867 74.7608 28.216C75.0594 28.0453 75.2701 27.7653 75.3928 27.376H77.4968C77.4008 27.9627 77.1661 28.464 76.7928 28.88C76.4194 29.296 75.9634 29.6133 75.4248 29.832C74.8914 30.0507 74.3394 30.16 73.7688 30.16C72.9474 30.16 72.2248 29.9893 71.6008 29.648C70.9821 29.3013 70.4994 28.8133 70.1528 28.184C69.8061 27.5547 69.6328 26.8133 69.6328 25.96C69.6328 25.1333 69.7901 24.3893 70.1048 23.728C70.4248 23.0613 70.8834 22.536 71.4808 22.152C72.0781 21.7627 72.8008 21.568 73.6488 21.568C74.4914 21.568 75.1981 21.7467 75.7688 22.104C76.3394 22.456 76.7714 22.9493 77.0648 23.584C77.3581 24.2133 77.5048 24.9413 77.5048 25.768V26.4H71.9448ZM71.9448 25.008H75.3208C75.3208 24.5067 75.1821 24.08 74.9048 23.728C74.6274 23.376 74.2061 23.2 73.6408 23.2C73.2834 23.2 72.9768 23.288 72.7208 23.464C72.4701 23.64 72.2754 23.8667 72.1368 24.144C72.0034 24.416 71.9394 24.704 71.9448 25.008ZM82.054 20.512V18.432H91.31V20.512H87.894V30H85.55V20.512H82.054ZM94.9986 30.16C94.188 30.16 93.4813 29.9867 92.8786 29.64C92.2813 29.2933 91.8173 28.8027 91.4866 28.168C91.1613 27.5333 90.9986 26.7813 90.9986 25.912C90.9986 25.0427 91.1613 24.2827 91.4866 23.632C91.812 22.9813 92.276 22.4747 92.8786 22.112C93.4813 21.7493 94.1906 21.568 95.0066 21.568C95.8226 21.568 96.5266 21.7467 97.1186 22.104C97.716 22.4613 98.1773 22.9653 98.5026 23.616C98.8333 24.2613 98.9986 25.0267 98.9986 25.912C98.9986 26.744 98.8386 27.48 98.5186 28.12C98.204 28.7547 97.748 29.2533 97.1506 29.616C96.5586 29.9787 95.8413 30.16 94.9986 30.16ZM95.0066 28.424C95.4173 28.424 95.748 28.304 95.9986 28.064C96.2493 27.824 96.4306 27.5093 96.5426 27.12C96.6546 26.7253 96.7106 26.296 96.7106 25.832C96.7106 25.3947 96.6573 24.984 96.5506 24.6C96.4493 24.2107 96.2733 23.896 96.0226 23.656C95.7773 23.4107 95.4386 23.288 95.0066 23.288C94.596 23.288 94.2626 23.4027 94.0066 23.632C93.7506 23.8613 93.564 24.168 93.4466 24.552C93.3346 24.936 93.2786 25.3627 93.2786 25.832C93.2786 26.264 93.332 26.68 93.4386 27.08C93.5453 27.4747 93.724 27.7973 93.9746 28.048C94.2253 28.2987 94.5693 28.424 95.0066 28.424ZM102.57 26.4C102.564 27.0347 102.716 27.5387 103.026 27.912C103.34 28.2853 103.778 28.472 104.338 28.472C104.738 28.472 105.087 28.3867 105.386 28.216C105.684 28.0453 105.895 27.7653 106.018 27.376H108.122C108.026 27.9627 107.791 28.464 107.418 28.88C107.044 29.296 106.588 29.6133 106.05 29.832C105.516 30.0507 104.964 30.16 104.394 30.16C103.572 30.16 102.85 29.9893 102.226 29.648C101.607 29.3013 101.124 28.8133 100.778 28.184C100.431 27.5547 100.258 26.8133 100.258 25.96C100.258 25.1333 100.415 24.3893 100.73 23.728C101.05 23.0613 101.508 22.536 102.106 22.152C102.703 21.7627 103.426 21.568 104.274 21.568C105.116 21.568 105.823 21.7467 106.394 22.104C106.964 22.456 107.396 22.9493 107.69 23.584C107.983 24.2133 108.13 24.9413 108.13 25.768V26.4H102.57ZM102.57 25.008H105.946C105.946 24.5067 105.807 24.08 105.53 23.728C105.252 23.376 104.831 23.2 104.266 23.2C103.908 23.2 103.602 23.288 103.346 23.464C103.095 23.64 102.9 23.8667 102.762 24.144C102.628 24.416 102.564 24.704 102.57 25.008ZM117.805 30H115.477L113.245 26.432L112.149 27.6V30H109.812V18.112H112.149V25.16L115.189 21.728H117.701L114.693 25.024L117.805 30ZM122.249 30.16C121.438 30.16 120.731 29.9867 120.129 29.64C119.531 29.2933 119.067 28.8027 118.737 28.168C118.411 27.5333 118.249 26.7813 118.249 25.912C118.249 25.0427 118.411 24.2827 118.737 23.632C119.062 22.9813 119.526 22.4747 120.129 22.112C120.731 21.7493 121.441 21.568 122.257 21.568C123.073 21.568 123.777 21.7467 124.369 22.104C124.966 22.4613 125.427 22.9653 125.753 23.616C126.083 24.2613 126.249 25.0267 126.249 25.912C126.249 26.744 126.089 27.48 125.769 28.12C125.454 28.7547 124.998 29.2533 124.401 29.616C123.809 29.9787 123.091 30.16 122.249 30.16ZM122.257 28.424C122.667 28.424 122.998 28.304 123.249 28.064C123.499 27.824 123.681 27.5093 123.793 27.12C123.905 26.7253 123.961 26.296 123.961 25.832C123.961 25.3947 123.907 24.984 123.801 24.6C123.699 24.2107 123.523 23.896 123.273 23.656C123.027 23.4107 122.689 23.288 122.257 23.288C121.846 23.288 121.513 23.4027 121.257 23.632C121.001 23.8613 120.814 24.168 120.697 24.552C120.585 24.936 120.529 25.3627 120.529 25.832C120.529 26.264 120.582 26.68 120.689 27.08C120.795 27.4747 120.974 27.7973 121.225 28.048C121.475 28.2987 121.819 28.424 122.257 28.424ZM127.844 30V21.728H130.132V22.896C130.382 22.5333 130.718 22.2213 131.14 21.96C131.566 21.6987 132.102 21.568 132.748 21.568C133.169 21.568 133.598 21.68 134.036 21.904C134.478 22.128 134.822 22.4587 135.068 22.896C135.334 22.5173 135.684 22.2027 136.116 21.952C136.553 21.696 137.038 21.568 137.572 21.568C137.982 21.568 138.396 21.6613 138.812 21.848C139.228 22.0347 139.574 22.344 139.852 22.776C140.134 23.208 140.276 23.7973 140.276 24.544V30H137.94V24.832C137.94 24.3307 137.801 23.9787 137.524 23.776C137.246 23.5733 136.942 23.472 136.612 23.472C136.404 23.472 136.193 23.5147 135.98 23.6C135.766 23.68 135.585 23.8107 135.436 23.992C135.286 24.1733 135.212 24.4107 135.212 24.704V30H132.884V24.624C132.884 24.2507 132.742 23.9653 132.46 23.768C132.177 23.5707 131.881 23.472 131.572 23.472C131.252 23.472 130.94 23.5733 130.636 23.776C130.332 23.9787 130.18 24.288 130.18 24.704V30H127.844ZM145.422 30.16C144.846 30.16 144.291 30.0667 143.758 29.88C143.23 29.688 142.779 29.3893 142.406 28.984C142.038 28.5787 141.806 28.048 141.71 27.392H143.726C143.832 27.8347 144.059 28.1413 144.406 28.312C144.758 28.4773 145.094 28.56 145.414 28.56C145.856 28.56 146.216 28.4907 146.494 28.352C146.771 28.208 146.91 27.9893 146.91 27.696C146.91 27.472 146.827 27.2933 146.662 27.16C146.502 27.0267 146.235 26.9253 145.862 26.856L144.406 26.552C143.67 26.3973 143.08 26.136 142.638 25.768C142.195 25.3947 141.971 24.8667 141.966 24.184C141.96 23.4373 142.254 22.816 142.846 22.32C143.443 21.8187 144.307 21.568 145.438 21.568C146.456 21.568 147.27 21.7947 147.878 22.248C148.486 22.696 148.798 23.3253 148.814 24.136H146.862C146.803 23.816 146.643 23.5707 146.382 23.4C146.126 23.224 145.8 23.136 145.406 23.136C145.006 23.136 144.675 23.208 144.414 23.352C144.152 23.496 144.022 23.7147 144.022 24.008C144.022 24.2267 144.126 24.4 144.334 24.528C144.547 24.6507 144.88 24.7573 145.334 24.848L146.678 25.152C147.291 25.3013 147.758 25.52 148.078 25.808C148.398 26.096 148.616 26.4 148.734 26.72C148.851 27.0347 148.91 27.3173 148.91 27.568C148.91 28.3947 148.587 29.0347 147.942 29.488C147.296 29.936 146.456 30.16 145.422 30.16ZM155.476 23.352H153.636L153.652 27.76C153.652 28.064 153.711 28.256 153.828 28.336C153.946 28.4107 154.132 28.448 154.388 28.448H155.5V29.888C155.388 29.936 155.218 29.9813 154.988 30.024C154.764 30.0667 154.452 30.088 154.052 30.088C153.322 30.088 152.756 29.9947 152.356 29.808C151.962 29.6213 151.687 29.36 151.532 29.024C151.383 28.688 151.308 28.2987 151.308 27.856V23.352H149.964V21.728H151.38L151.972 19.232H153.636V21.72H155.476V23.352ZM160.475 21.568C161.168 21.568 161.766 21.7093 162.267 21.992C162.774 22.2747 163.171 22.656 163.459 23.136C163.752 23.616 163.92 24.152 163.963 24.744H162.019C161.966 24.4133 161.816 24.0987 161.571 23.8C161.331 23.496 160.971 23.344 160.491 23.344C159.947 23.344 159.504 23.5547 159.163 23.976C158.827 24.392 158.659 25.0267 158.659 25.88C158.659 26.6907 158.824 27.3307 159.155 27.8C159.486 28.2693 159.947 28.504 160.539 28.504C160.854 28.504 161.115 28.4267 161.323 28.272C161.536 28.1173 161.702 27.9333 161.819 27.72C161.936 27.5013 162.011 27.2987 162.043 27.112H163.939C163.902 27.6827 163.736 28.2 163.443 28.664C163.15 29.1227 162.75 29.488 162.243 29.76C161.736 30.0267 161.147 30.16 160.475 30.16C159.707 30.16 159.022 29.9893 158.419 29.648C157.816 29.3067 157.342 28.8187 156.995 28.184C156.654 27.544 156.483 26.7813 156.483 25.896C156.483 25.0427 156.648 24.2907 156.979 23.64C157.31 22.9893 157.774 22.4827 158.371 22.12C158.968 21.752 159.67 21.568 160.475 21.568ZM165.578 30V18.112H167.898V22.92C168.031 22.7333 168.199 22.544 168.402 22.352C168.605 22.16 168.858 22 169.162 21.872C169.466 21.744 169.837 21.68 170.274 21.68C170.797 21.68 171.277 21.784 171.714 21.992C172.151 22.1947 172.501 22.4907 172.762 22.88C173.029 23.2693 173.162 23.744 173.162 24.304V30H170.818V24.648C170.818 24.2747 170.682 23.9893 170.41 23.792C170.138 23.5893 169.813 23.488 169.434 23.488C169.05 23.488 168.701 23.592 168.386 23.8C168.071 24.0027 167.914 24.3093 167.914 24.72V30H165.578ZM177.039 26.4C177.033 27.0347 177.185 27.5387 177.495 27.912C177.809 28.2853 178.247 28.472 178.807 28.472C179.207 28.472 179.556 28.3867 179.855 28.216C180.153 28.0453 180.364 27.7653 180.487 27.376H182.591C182.495 27.9627 182.26 28.464 181.887 28.88C181.513 29.296 181.057 29.6133 180.519 29.832C179.985 30.0507 179.433 30.16 178.863 30.16C178.041 30.16 177.319 29.9893 176.695 29.648C176.076 29.3013 175.593 28.8133 175.247 28.184C174.9 27.5547 174.727 26.8133 174.727 25.96C174.727 25.1333 174.884 24.3893 175.199 23.728C175.519 23.0613 175.977 22.536 176.575 22.152C177.172 21.7627 177.895 21.568 178.743 21.568C179.585 21.568 180.292 21.7467 180.863 22.104C181.433 22.456 181.865 22.9493 182.159 23.584C182.452 24.2133 182.599 24.9413 182.599 25.768V26.4H177.039ZM177.039 25.008H180.415C180.415 24.5067 180.276 24.08 179.999 23.728C179.721 23.376 179.3 23.2 178.735 23.2C178.377 23.2 178.071 23.288 177.815 23.464C177.564 23.64 177.369 23.8667 177.231 24.144C177.097 24.416 177.033 24.704 177.039 25.008ZM187.881 21.568C188.575 21.568 189.172 21.7093 189.673 21.992C190.18 22.2747 190.577 22.656 190.865 23.136C191.159 23.616 191.327 24.152 191.369 24.744H189.425C189.372 24.4133 189.223 24.0987 188.977 23.8C188.737 23.496 188.377 23.344 187.897 23.344C187.353 23.344 186.911 23.5547 186.569 23.976C186.233 24.392 186.065 25.0267 186.065 25.88C186.065 26.6907 186.231 27.3307 186.561 27.8C186.892 28.2693 187.353 28.504 187.945 28.504C188.26 28.504 188.521 28.4267 188.729 28.272C188.943 28.1173 189.108 27.9333 189.225 27.72C189.343 27.5013 189.417 27.2987 189.449 27.112H191.345C191.308 27.6827 191.143 28.2 190.849 28.664C190.556 29.1227 190.156 29.488 189.649 29.76C189.143 30.0267 188.553 30.16 187.881 30.16C187.113 30.16 186.428 29.9893 185.825 29.648C185.223 29.3067 184.748 28.8187 184.401 28.184C184.06 27.544 183.889 26.7813 183.889 25.896C183.889 25.0427 184.055 24.2907 184.385 23.64C184.716 22.9893 185.18 22.4827 185.777 22.12C186.375 21.752 187.076 21.568 187.881 21.568ZM200.976 30H198.648L196.416 26.432L195.32 27.6V30H192.984V18.112H195.32V25.16L198.36 21.728H200.872L197.864 25.024L200.976 30Z" fill="white"/>
<path d="M225.713 24L219.702 17.99L218.288 19.404L222.888 24.004L218.288 28.597L219.702 30.011L225.713 24Z" fill="white"/>
</svg>
